/* XPM */
static char *_60ab40519ac456dbb5c76df230e93b3ksuyP6cro5FfA5Di[] = {
/* columns rows colors chars-per-pixel */
"64 64 182 2 ",
"   c #000000",
".  c #00020A",
"X  c #0C0C0C",
"o  c #040612",
"O  c #040914",
"+  c #060D1B",
"@  c #080E1D",
"#  c #07101F",
"$  c #08101F",
"%  c #060F22",
"&  c #090E23",
"*  c #0A1223",
"=  c #0E152A",
"-  c #0F182D",
";  c #11162C",
":  c #13182E",
">  c #1A192E",
",  c #0F1630",
"<  c #141633",
"1  c #131A33",
"2  c #1B1B34",
"3  c #161E39",
"4  c #1A1D3C",
"5  c #221E2B",
"6  c #221E36",
"7  c #231E3B",
"8  c #17203D",
"9  c #1A213E",
"0  c gray13",
"q  c #262037",
"w  c #2B2334",
"e  c #24213A",
"r  c #2B233D",
"t  c #2F2A3E",
"y  c #312732",
"u  c #31263B",
"i  c #352A3E",
"p  c #3B2D3D",
"a  c #412F38",
"s  c #43303D",
"d  c #171F42",
"f  c #191E43",
"g  c #231E42",
"h  c #162045",
"j  c #1D2343",
"k  c #1E244A",
"l  c #1D2355",
"z  c #1E255C",
"x  c #242342",
"c  c #2B2343",
"v  c #21254C",
"b  c #2B2649",
"n  c #22284D",
"m  c #2D2A4C",
"M  c #312643",
"N  c #352944",
"B  c #3A2B42",
"V  c #342B4E",
"C  c #3B2C49",
"Z  c #363047",
"A  c #3D3144",
"S  c #3D304D",
"D  c #232652",
"F  c #282650",
"G  c #252954",
"H  c #2B2A53",
"J  c #22265B",
"K  c #26295B",
"L  c #2A2A5C",
"P  c #352D52",
"I  c #3A2E54",
"U  c #352E5A",
"Y  c #363157",
"T  c #3C3354",
"R  c #35315F",
"E  c #3B335C",
"W  c #242564",
"Q  c #272A63",
"!  c #2B2C64",
"~  c #21276A",
"^  c #262A6D",
"/  c #2D2D6B",
"(  c #312E63",
")  c #312E6C",
"_  c #2F316D",
"`  c #3C3365",
"'  c #32316D",
"]  c #3B346C",
"[  c #222670",
"{  c #2D2E72",
"}  c #2E2E7B",
"|  c #312F70",
" . c #2F3070",
".. c #343272",
"X. c #3A3574",
"o. c #34327A",
"O. c #3A367C",
"+. c #412F43",
"@. c #443245",
"#. c #4A3543",
"$. c #4F3841",
"%. c #44334C",
"&. c #4B364A",
"*. c #4E394D",
"=. c #503745",
"-. c #523A45",
";. c #593D46",
":. c #533B4A",
">. c #5A3F4B",
",. c #453555",
"<. c #473855",
"1. c #4D3A54",
"2. c #403459",
"3. c #4D3B5A",
"4. c #543E53",
"5. c #533E5A",
"6. c #453763",
"7. c #443867",
"8. c #4B3B65",
"9. c #4B3B68",
"0. c #5E4147",
"q. c #5D414B",
"w. c #5A4153",
"e. c #55405A",
"r. c #5B425A",
"t. c #63454D",
"y. c #69474D",
"u. c #6C494C",
"i. c #704C4E",
"p. c #744E4F",
"a. c #77504E",
"s. c #79504D",
"d. c #7D534E",
"f. c #624554",
"g. c #674853",
"h. c #6A4A52",
"j. c #6D4C59",
"k. c #724E52",
"l. c #765152",
"z. c #7C5453",
"x. c #77535C",
"c. c #7A545D",
"v. c #554263",
"b. c #5C4463",
"n. c #5F496C",
"m. c #604762",
"M. c #654A67",
"N. c #6E4E62",
"B. c #654C6C",
"V. c #6B4F6B",
"C. c #765364",
"Z. c #795464",
"A. c #885A4D",
"S. c #815651",
"D. c #855A53",
"F. c #8C5E53",
"G. c #855B5C",
"H. c #8B5E5C",
"J. c #915F53",
"K. c #97634F",
"L. c #99644F",
"P. c #8F6054",
"I. c #8E605A",
"U. c #956353",
"Y. c #9A6654",
"T. c #9E6855",
"R. c #9E6956",
"E. c #96645A",
"W. c #9C695D",
"Q. c #A46C56",
"!. c #A86E56",
"~. c #A46D59",
"^. c #AC7159",
"/. c #B27459",
"(. c #B6785A",
"). c #8B6062",
"_. c #4AA500",
"`. c #64DF00",
"'. c #84DF3A",
"]. c #A4FF5A",
"[. c #A5A5A5",
"{. c white",
/* pixels */
"X                                                                                                                               ",
"X                                                                                                                               ",
"                                                                                                                                ",
"                                                                                                                                ",
"            0                                                                                                                   ",
"            [.                                                                                                                  ",
"          `.{.{.                                                                                                                ",
"            '.                                                                                                                  ",
"                                                                                                                                ",
"                                                                                                            0                   ",
"                                                                                                            [.                  ",
"                                                        .   O @ @ $ * * * * @ .                           _.].{.                ",
"                                                  . @ @ * * * * & 2 b x x 4 * @ @ @ .                       '.                  ",
"                                            o $ @ $ * * 3 3 j j j b P b 4 1 - * * = * * O                                       ",
"                                          O * * $ = j j 9 9 L U U H b b x 1 * 3 j j j j 9 : @ * +                               ",
"                                +       O * @ * 3 3 9 L K G ( n j j 1 * * * @ = * * * * * # @ @ @ + @                           ",
"                              +       O * @ = 8 3 j ) v v n n j j j 4 1 < 2 2 < * # * * O           + + .                       ",
"                            + @     O * $ 1 9 9 9 U L K ! / ! Q T -.&.@.c N M 7 2 2 2 ; @ + + o                                 ",
"                            * @   O * # 1 9 x P b G ......) / / f.s.T.F.u.s.F.>.M g g 4 : = * $ O O                             ",
"                        . + +     $ * 3 9 8 c I H ' O.) / ^ U :.T.T.S.U././.(.F.p.t.u.q.i 2 : * * * O                           ",
"                        . * +     $ 1 j 9 x c v ! O.| W P 1.g.u.z.y.@.&.t.q.>.=.#.t.p.i.q.#.B 2 : @ * O O                       ",
"                        . * +   o $ 3 3 x c 4 G ..! K ,.t.U.Q.s.d.D.s.a.p.y.@.M 4 r i @.>.t.q.#.+.2 = * * +                     ",
"                        + - O   * 1 j x M x D X.X.D V D.J.Y.P.r.x.).c.H.Q.Y.F.t.@.7 4 4 r p #.a #.@.q ; $ * O                   ",
"                      . 1 3 O   * k L I c v ..O./ T i.~.F.f.e.{ } { [ ` q.w.T.D.s.&.c 2 = , 3 % 6 #.@.i > $ * O                 ",
"                      . 1 3 O . = K ( I x ! X./ U d.~.g.g.` / ) ) ) ! / / ! 4.l.Q.D.@.7 < 1 j 9 1 6 s -.p > * +                 ",
"                      . 3 j @ * n ..4.M j ' _ L z.U.4.( ) 4 O . o . & k ! / ) ) 4.U.D.#.2 $ * j 9 * > s -.p : * O               ",
"                    O + 3 j + * v ..g.t k ..^ 1.Q.r.{ k O . . . . . . . + k | ..| 4.Y.F.#.6 + = 9 9 * * s -.u = O               ",
"                    o - D D = * G ..k.B #.] ` F.W.! f o . . . . . . . . . O f ..X.' r.F.F.-.q $ = j * + 6 #.p ; O               ",
"                    . 1 L K : * K ..l.B ;.] 7.K.x.f o . . . . . . . . . . . O v ....| C.T.t.-.2 $ = 8 = @ w t ; O               ",
"                    . 1 L Q 1 = L ..k.B ;.] n.U.>.= . . . . . . . . . . . . . 1 ) ..o.6.S.U.q.7 $ @ j = + : 2 = O               ",
"                    . 1 L Q 1 * D ..E.+.m { V.I.L . . . . . . . . . . . . . . O Q 3.7.J t.^.>.M 2 * = $ $ * ; ; O               ",
"                    . - K / k 1 k ..~.i.m ^ V.H.W . . . . . . . . . . . . . . . Q 4.9.z A D.D.&.r * @ 1 = @ * - O               ",
"                    o 1 L o.K 4 j ' E.J.Z ~ M.C.W . . . . . . . . . . . . . . . W w.9.J r k.~.t.c * @ j : @ * # o               ",
"                    . * k / / 4 4 ) z.T.#.W b.M.W . . . . . . . . . . . . . . . J w.9.J x j.~.t.N ; @ 9 - @ @ .                 ",
"                      . 1 ! / 4 4 K q.~.>.Q v.b.W O . . . . . . . . . . . . . O D q.9.J d v.!.t.&.7 * 9 3 = .                   ",
"                      o * k o.! j j E F.Y.` / X./ * . . . . . . . . . . . . . ; l D.B.z d 3.!.S.:.7 * 9 n 1 .                   ",
"                      o + 3 o.o.v 9 G k.!.m.' ..' 1 . . . . . . . . . . . . . 4 H D.B.l j 3.U.Y.>.7 * * j 3 .                   ",
"                        . = G O...k 4 x k.!.h.K ..K * . . . . . . . . . . . & j q.t.T h t >.t.~.t.r * + 9 3 .                   ",
"                  O .   . * 1 K o...4 4 &.Y.F.*.! ! k & . . . . . . . . . & v b T.u.Y k i 4.*.~.t.M * + 9 3 .                   ",
"                  1 =     . = G o...D 4 9 :.h.D.k.,.! G j & .       . + < ! F F.U.:.x v R V %.D.:.7 * + 9 3 .                   ",
"                  4 ;     . * : K ..! G 3 2 @.D.!.z.,.! { ! L L K K k c S 3.D.T.4.e * j ' H %.l.&.7 * + 9 3 .                   ",
"                  = 9 *     o * ; v / / L d 9 A d.U.U.f.r.] } o.} } 3.k.F.0.F.5.4 * * v _ T t.i.&.c = O 9 3 .                   ",
"                . . 3 j *     O * = D ..o./ K D I 4.D.T.T.G.r.N.Z.Z.U.Y.S.6.8.G = = v ' Q T S.q.A > * : 3 *                     ",
"                    @ j j *     O * : K ! ....( T S :.z.z.D.d.A.L.U.Y.z.E Q Q 4 = j O.! x *.i.@.q # @ j 1 .                     ",
"                      * j j : = . @ * 1 9 D Q ( 1.5.3.L V C >.1.3.<.*.2.J : : = k ..O.f 5 t.q.7 ; * $ 1 * .                     ",
"                        * j n j = = * $ = 3 3 j K /  .' 3.4.<.! / ! D j ; + = v ../ G 1 w q.>.6 * * * * .                       ",
"                          * j k n k = = = * # $ 3 9 j j K Q v 3 3 1 1 * * 1 G ..G ; O 5 -.-.r 2 * + @ @                         ",
"                      0     * 3 j j k k K 3 - = = * $ $ @ $ * * = = * 1 D ....G : * + y t.s ; * $   +                           ",
"                      [.      @ * j j k v L / / Q k * * * * 3 n ! ../ ..' G v 4 * * > s s 2 = * +   O                           ",
"                    _.].{.        @ $ 3 j k K ../ ) / ) ........../ v D v 4 1 * * 2 #.#.2 : 2 +   +                             ",
"                      [.              @ * $ 1 v 1 j K ......' / k 4 3 1 * * * * 2 #.@.r 2 = +                                   ",
"                                            O = * * * = 1 k D 1 $ * * * $ # * s $.p q : * +                                     ",
"                                          . @ * = 9 9 8 9 j n 9 8 3 # * 2 w p i i > = = O                                       ",
"                                          . . . O 1 1 1 1 1 1 1 : ; 2 6 r r u : ; * o .                                         ",
"                                                        . . . O # * : 2 : ; ; * . .                                             ",
"                                                              . O O o o o o o O                                                 ",
"                                                                                                                                ",
"                                                                                                                                ",
"                                                                                                                                ",
"                                                                                                                                ",
"                                                                                                                                ",
"                                                                                                                                ",
"                                                                                                                                ",
"                                                                                                                                "
};
