/* XPM */
static char *_81a2941b10848ecda0cf427e8a6dcaeIk2NqejqhWySdpIY[] = {
/* columns rows colors chars-per-pixel */
"64 64 142 2 ",
"   c None",
".  c #161616",
"X  c #171718",
"o  c #171818",
"O  c #1B1C1C",
"+  c #1F1F20",
"@  c #1F2020",
"#  c #232324",
"$  c #272728",
"%  c #272828",
"&  c #2C2B2C",
"*  c #2F2F30",
"=  c #302F30",
"-  c #333333",
";  c #383737",
":  c #373738",
">  c #383738",
",  c #3C3B3C",
"<  c #403F3F",
"1  c #403F40",
"2  c #3F4040",
"3  c #434343",
"4  c #484747",
"5  c #484748",
"6  c #4C4B4C",
"7  c #4F4F50",
"8  c #504F50",
"9  c #545354",
"0  c #585757",
"q  c #575758",
"w  c #585758",
"e  c #5C5B5C",
"r  c #605F5F",
"t  c #5F5F60",
"y  c #605F60",
"u  c #646363",
"i  c #686767",
"p  c #686768",
"a  c #6C6C6C",
"s  c #706F6F",
"d  c #706F70",
"f  c #747474",
"g  c #787777",
"h  c #787877",
"j  c #7B7B7B",
"k  c #807F7F",
"l  c #80807F",
"z  c #7F7F80",
"x  c #868686",
"c  c #838382",
"v  c #888887",
"b  c #888888",
"n  c #898989",
"m  c #8A8A89",
"M  c #8B8A8A",
"N  c #8A8B8A",
"B  c #8B8B8A",
"V  c #8B8B8B",
"C  c #8C8C8B",
"Z  c gray55",
"A  c #8D8D8D",
"S  c #8E8E8E",
"D  c #8B8B8B",
"F  c #909090",
"G  c #909190",
"H  c #909191",
"J  c gray57",
"K  c #919291",
"L  c #929291",
"P  c #929292",
"I  c #929392",
"U  c #939392",
"Y  c #939393",
"T  c #939494",
"R  c gray58",
"E  c #949594",
"W  c #959594",
"Q  c #959595",
"!  c #959695",
"~  c gray59",
"^  c #969796",
"/  c #979796",
"(  c #979797",
")  c #929392",
"_  c #989898",
"`  c #989998",
"'  c #989999",
"]  c gray60",
"[  c #9A9A99",
"{  c #999A9A",
"}  c #9A9A9A",
"|  c gray61",
" . c #9C9D9C",
".. c #9D9E9D",
"X. c #9D9E9E",
"o. c gray62",
"O. c #9E9F9E",
"+. c #9E9F9F",
"@. c #9F9F9F",
"#. c #9B9C9C",
"$. c #9FA09F",
"%. c #9FA09F",
"&. c #A0A09F",
"*. c #A0A0A0",
"=. c #A0A1A0",
"-. c #A1A1A0",
";. c #A0A1A1",
":. c gray63",
">. c #A1A2A1",
",. c #A1A2A2",
"<. c #A2A2A2",
"1. c #A2A3A2",
"2. c gray64",
"3. c #A4A4A3",
"4. c #A4A4A4",
"5. c #A5A5A4",
"6. c #A5A5A5",
"7. c #A5A6A5",
"8. c gray65",
"9. c #A6A7A6",
"0. c #A7A7A7",
"q. c #A4A4A4",
"w. c #A7A8A7",
"e. c #A8A8A7",
"r. c #A7A8A8",
"t. c gray66",
"y. c #A8A9A8",
"u. c #A9A9A8",
"i. c #A8A9A9",
"p. c #A9A9A9",
"a. c #A9AAA9",
"s. c #AAAAAA",
"d. c #AAABAA",
"f. c #ABABAA",
"g. c gray67",
"h. c #ABACAB",
"j. c #ABACAC",
"k. c #ACACAC",
"l. c #ACADAC",
"z. c gray68",
"x. c #AEAFAE",
"c. c #A9AAAA",
/* pixels */
"                                                                                                                                ",
"                                                                                                                                ",
"                                                                                                                                ",
"                                                                                                                                ",
"                                                                                                                                ",
"                                                                                                                                ",
"                                                                                                                                ",
"                                                                                                                                ",
"                                                                                                                                ",
"                                                                                                                                ",
"                                                                                                                                ",
"                                                            o , 0 e e 6 &                                                       ",
"                                                        o & 9 j B 5.k.~ j 4 .                                                   ",
"                                          . & e u u u u u h v j j x C ..s.$.e #                                                 ",
"                                        O 4 g x c x x x x j j f j j j B 1.h.1.a 3 & # #                                         ",
"                                      O 6 c c g g j B c 1._ L L L L $.s.s.5.s.3.A c c c 5 $                                     ",
"                                    o , c k j j l ~ h.5.5.s.s.s.h.s.1.h.s.s.s.5.s.h._ ~ ..a -                                   ",
"                                o O # 6 k j j j _ j.~ Y x 1.s.s.e.5.B B 1.s.s.s.s.1.c j x k.g O                                 ",
"                              o $ & - u c j c ..s.~ a u a c B ~ s.s.5._ 1.w.L c B 5.$.j j x c ,                                 ",
"                              $ , ; - f c l c 5.s.B j d a f j j T h.s._ 5.k.s._ x ..1._ A j B a #                               ",
"                            O , - # # j j f g A s.~ j c j g j j A 1.~ &.5.B e 2 6 f ~ 5._ ..s.~ e &                             ",
"                            & < - O & j a 9 y g _ r.L j z A j ..~ j ~ 5.t % $ $ O + 4 T L B 1.k.s.u $                           ",
"                          o , , * # 5 g a 7 u a j c ....1.r.1.L j g F a - # - , & $ O - a j c ~ s.~ 0 #                         ",
"                          O 5 3 & $ u f f a g f u a x 5.L L 5.c f c &.6 - - , 3 , , - + * c j L L ..j ,                         ",
"                          $ 0 5 * 9 f f a _ x u u f j c j j c j u x 1.5 , , , < , 1 , - O e x c ..B j e #                       ",
"                          , u e e u a s u x s.c g j j j j A c j u 5 B e , 3 8 e 9 3 , , % * B j j B j h 6                       ",
"                        o 4 e u u a u a e a B A c j j j g _ L f u , f g 3 u u u u 6 5 3 , - c Y g g a j g -                     ",
"                        $ 3 3 5 e e a u 4 e a f j a u a g x 1.x u 3 e T u u u a a u u e 8 4 c ..g j e g j ,                     ",
"                      + , 3 < 9 e e u 5 & - 9 u a d g B _ ..s.x a 9 3 x 5.d u a a u u u u 0 x V u j j d u 4 %                   ",
"                      & 4 < 6 u y u 9 , - & - e f j 1...c x L j j u 6 e $.5.c f a a g a a j ..p e j j u e 6 &                   ",
"                    o - , , 5 e e 9 6 , , , , 9 j j j j j j j f a u u u u B s.j g j j a c k._ 6 u g a u e , O                   ",
"                    & - & - , 3 9 , e e 6 4 6 9 a f g j j g g i e u u u u u f _ R j j ~ 5.L e 5 a j j i 4 % o                   ",
"                    - & - # - 9 , , 6 u a e r u u u u a j j f g g f a 6 e u 0 q e a L B y 3 , 9 f j f 5 , #                     ",
"                    o & , + O 6 6 , 3 9 u i e r a a e a j j a f j j j t 1 7 e 5 - 3 8 , - 3 4 u u a u 3 % o                     ",
"                    . - < % O - 5 < , 1 6 e a a u a f g j a f j j g g g e 4 2 e 9 4 4 4 , 4 0 a a e u 6 O                       ",
"                    o % , - o - , , 1 3 9 u e r u u f g u g j g c x j g f u 0 u u e e 0 e u a a a e u 9 O                       ",
"                      O * - % - 3 , 3 6 3 e u u 0 , , u e u u a c Z B j a u u u u u u a g g u e w e 5 5 O                       ",
"                      O - - , 4 1 3 , 5 e y 9 % O o o % 9 e u a x j f f s a u u a a u p 6 u u 9 e , - 9 ,                       ",
"                      o - , & - % , , , u 6 O o O O O . $ e a f a a a e , 5 e u u u 0 , & , e e 5 , $ 6 :                       ",
"                        # - & o o # , , , $ o O O @ % # . & u e u e 0 4 - - > 6 e 0 , , 1 , e 5 3 - $ , $                       ",
"                        # , - # O O % 3 - O # % O O & % # # 6 e 0 u 4 - ; , , w 5 , , 3 5 e 0 , , # $ , @                       ",
"                        o + - , - - o % , # $ , - $ $ - , & $ 5 , 6 9 6 0 e 0 3 , , 5 6 w e 3 , , - , - o                       ",
"                          O % , 3 - @ O 3 , # - , , , , - % # , , , 0 r u e 4 , 3 3 3 4 9 , - 3 , 3 - o                         ",
"                            o O - , # O % 4 4 , , , , , 4 $ & , , 3 1 4 9 8 3 3 , , 3 < , 3 , - - % o                           ",
"                              O O - $ O O $ 6 e 8 4 4 5 4 : 5 - - , - , < < 3 3 , , 3 , 3 , % % + o                             ",
"                                O - , O O O # , 0 e u e 6 5 3 O O & , < , - % , , - - , & # , - o                               ",
"                                o - , & $ O O o = , 6 9 5 $ $ $ % , , - # O O $ % - , - # & 3 &                                 ",
"                                . $ - , - O O O o o $ - , , , , , , , , & # ; , % % - , , < , O                                 ",
"                                  o # - , $ O O O O O + # & - % # # - > , , - % # o O - , - O                                   ",
"                                    O O - , - O O O & & % % @ o O O O o % , = & % $ - , - O                                     ",
"                                        O % - - - - , , - - # # % O o # - , - , , , - % O                                       ",
"                                          . o # & - , , - & - - - & % , , & O O O O o                                           ",
"                                                . o $ $ $ - , , , , , & O X                                                     ",
"                                                          o $ $ $ + o                                                           ",
"                                                                                                                                ",
"                                                                                                                                ",
"                                                                                                                                ",
"                                                                                                                                ",
"                                                                                                                                ",
"                                                                                                                                ",
"                                                                                                                                ",
"                                                                                                                                ",
"                                                                                                                                ",
"                                                                                                                                "
};
