/* XPM */
static char *_ae55b539e79484bf3119fdb2d794f74tdGLNkUMGUvfGw70[] = {
/* columns rows colors chars-per-pixel */
"64 64 152 2 ",
"   c #000000",
".  c #000D01",
"X  c #001606",
"o  c #001B05",
"O  c #001209",
"+  c #001D09",
"@  c #01230D",
"#  c #012A0C",
"$  c #012C10",
"%  c #023513",
"&  c #023D16",
"*  c #023E18",
"=  c gray13",
"-  c #03441C",
";  c #034A1E",
":  c #006617",
">  c #007A17",
",  c #044D21",
"<  c #0B4823",
"1  c #045323",
"2  c #055A26",
"3  c #0C5028",
"4  c #055D28",
"5  c #016D22",
"6  c #06632C",
"7  c #07692E",
"8  c #02732E",
"9  c #086F31",
"0  c #077132",
"q  c #0A7435",
"w  c #0A7836",
"e  c #0A7D38",
"r  c #157B42",
"t  c #1C7D41",
"y  c #00821C",
"u  c #008C1E",
"i  c #008627",
"p  c #008A2F",
"a  c #009025",
"s  c #008332",
"d  c #048D34",
"f  c #0D8C34",
"g  c #0B843B",
"h  c #0D8C3B",
"j  c #089836",
"k  c #06913C",
"l  c #0E913D",
"z  c #14933F",
"x  c #4AA500",
"c  c #64DF00",
"v  c #0D8E41",
"b  c #168246",
"n  c #0F9645",
"m  c #0F9847",
"M  c #0F9749",
"N  c #0F9A49",
"B  c #109543",
"V  c #109C4A",
"C  c #109F53",
"Z  c #398A5A",
"A  c #279654",
"S  c #06A346",
"D  c #08AE4B",
"F  c #10A54D",
"G  c #11A84E",
"H  c #11A156",
"J  c #11A45B",
"K  c #1AAB59",
"L  c #12A761",
"P  c #13A965",
"I  c #14AE6E",
"U  c #14B173",
"Y  c #16B67C",
"T  c #3EAA69",
"R  c #35B669",
"E  c #40BA72",
"W  c #84DF3A",
"Q  c #A4FF5A",
"!  c #16BB85",
"~  c #17BE89",
"^  c #5DBF85",
"/  c #18C08D",
"(  c #18C493",
")  c #19C99B",
"_  c #1ACEA4",
"`  c #1CD6B2",
"'  c #1DD9B6",
"]  c #1DDDBE",
"[  c #63CA8D",
"{  c #6FCA94",
"}  c #78CD9C",
"|  c #02E7CF",
" . c #1EE1C6",
".. c #1FE5CD",
"X. c #02E7D0",
"o. c #06E8D0",
"O. c #0CE8D1",
"+. c #1FE7D0",
"@. c #14E9D3",
"#. c #1EE9D4",
"$. c #20E7CF",
"%. c #20E7D0",
"&. c #21EAD5",
"*. c #28EBD6",
"=. c #20EDDA",
"-. c #2FEBD8",
";. c #36ECD9",
":. c #38EDDA",
">. c #21F0DF",
",. c #22F2E3",
"<. c #22F6EA",
"1. c #23F9EE",
"2. c #24FBF2",
"3. c #25FFFC",
"4. c #44EDDB",
"5. c #4CEEDD",
"6. c #53EFDE",
"7. c #58EFDF",
"8. c #55EFE0",
"9. c #5EF0E1",
"0. c #64F0E2",
"q. c #6EF1E3",
"w. c #A5A5A5",
"e. c #8EC597",
"r. c #94C79E",
"t. c #93C89E",
"y. c #9CCBA5",
"u. c #92D2AC",
"i. c #A9C0B2",
"p. c #A7D7B8",
"a. c #B1DFC7",
"s. c #B9E3CD",
"d. c #97F5EB",
"f. c #A3F6ED",
"g. c #AFF7EF",
"h. c #AEF7F1",
"j. c #BDF9F2",
"k. c #DBDBDB",
"l. c #CFE8D9",
"z. c #D5ECDE",
"x. c #D7ECE0",
"c. c #C3FAF4",
"v. c #C9FAF5",
"b. c #EAF4EE",
"n. c #EEF7F1",
"m. c #EAFEFB",
"M. c #F3F7F5",
"N. c #F6FEFD",
"B. c #F7FEFE",
"V. c #FAFDFD",
"C. c #FBFFFE",
"Z. c white",
/* pixels */
"                                                                                                                                ",
"                                                                                                                                ",
"                                                                                                                                ",
"                                                                                                                                ",
"            =                                                                                                                   ",
"            w.                                                                                                                  ",
"          c Z.Z.                                                                                                                ",
"            W                                                                                                                   ",
"                                                                                                                                ",
"                                                                                                            =                   ",
"                                                                                                            w.                  ",
"                                                                                                          x Q Z.                ",
"                                                    - h N n n n n n n V 0 o   .                             W                   ",
"                                              % g V n n n n n n n n n n n n G 6   .                                             ",
"                                      .   $ e V n n n n n n n n n n n n n n n n G 2   .                                         ",
"                                    .   1 G n n n n n n n f f f f f f l n n n n n F q @   .                                     ",
"                                      6 F n n n M n f C _ %.,.<.,.,.,...( n f m n n n n ;                                       ",
"                                  X 0 F n n M l f ( <.=.%.&.&.&.&.&.%.%...,.=.J f M n n F ,   .                                 ",
"                                . 7 F n n M f U 2.%.&.&.&.&.&.&.&.&.&.&.&.&...<.] n h M n B -                                   ",
"                            .   1 F n M l n ` <...&.&.&.&.&.&.&.&.&.&.&.&.&.&.%...<.J f M V q +                                 ",
"                              - F n M f C +.&.&.&.&.&.&.@.| | @.o.| O.&.&.&.&.&.&...2.L f M F ,                                 ",
"                        .   % h m n l H  .&.&.&.&.*.o.*.v.Z.Z.Z.Z.Z.m.5.| #.&.&.&.&...<.J f M F -                               ",
"                            - F n n M ( ,.%.#.*.O.*.c.Z.C.Z.Z.Z.Z.Z.Z.Z.B.4.| *.#.&.%.%.' H l F 1                               ",
"                      .   & n n M f L 3...#.*.| 5.Z.C.Z.Z.Z.Z.Z.Z.Z.Z.Z.B.Z.9.| *.#.&...1.I l n F -                             ",
"                      .   - F n l J +.%.#.*.X.5.Z.C.Z.Z.Z.Z.Z.Z.Z.Z.Z.Z.Z.B.Z.7.| *.#.&...+.J h F -                             ",
"                          6 F n h P 1...&.@.;.c.Z.C.C.Z.s.z y d i l a.Z.C.Z.Z.B.4.O.*.&...2.P f F 7 .                           ",
"                    .   & m n n C ` &.+.*.| 6.Z.B.C.Z.t.> K q # e K > e.Z.C.C.Z.q.O.*.&.&.=.) V n F -   .                       ",
"                    .   * F M f H <.+.&.@.:.c.Z.B.Z.p.p H 7   X .   b u r.Z.C.Z.m.4.O.*.&.$.=.H h F -   .                       ",
"                    .   * F n h J 1.+.*.o.6.Z.B.C.Z.y.a r   X   .   < s ^ b.Z.B.Z.6.| *.&...1.H f F ,                           ",
"                    .   - F n l I <.+.*.o.7.Z.B.Z.C.{ 5     .     O   8 R l.Z.B.Z.9.o.*.&.+.1.J h F 1                           ",
"                        ; F n n ! ,.%.&.O.0.Z.B.Z.M.[ 5   X       .   8 E x.Z.B.Z.q.@.&.&.+.1.L h F 2                           ",
"                        ; F n m ! >.%.&.O.0.Z.B.Z.C.} :   X     .   3 s ^ n.Z.B.Z.q.O.&.&.+.1.J h F 2                           ",
"                    .   - F n n Y ,.+.*.o.8.Z.C.C.Z.y.y r   X   X   r u r.Z.C.B.Z.7.| *.&.+.1.J f F 1                           ",
"                    .   * F n l P 1...*.o.5.Z.B.Z.Z.k.t D q   @   q S T z.Z.Z.B.Z.6.| *.&.%.,.H f F -   .                       ",
"                    .   * F M f H 3...&.#.;.j.Z.C.Z.Z.k.5 j V n V n k p.Z.C.Z.Z.c.:.@.&.%.&.` C l F -   .                       ",
"                    .   * F n l H =.%.#.*.| 6.Z.B.Z.Z.Z.M.i.Z A A u.Z.Z.Z.Z.B.Z.7.| *.&.+.<.U l m v %   .                       ",
"                        X 9 V n M ~ ,.%.&.#.-.h.Z.C.Z.Z.Z.Z.Z.Z.Z.Z.Z.Z.Z.C.Z.g.-.#.&.&...2.J f F 2                             ",
"                      .   - F M f J 3...&.*.o.4.C.Z.Z.Z.Z.Z.Z.Z.Z.Z.Z.Z.Z.Z.C.4.o.*.&.+.,.~ m n F -                             ",
"                      .   - F n n V ) =.%.#.*.| 4.B.Z.Z.Z.Z.Z.Z.Z.Z.Z.Z.Z.B.4.| *.#.&...1.J f V h %   .                         ",
"                            , F M f J 1...&.&.*.@.@.f.Z.C.Z.Z.Z.Z.Z.C.Z.g.#.@.*.&.&...3.P f M F -                               ",
"                            - F n M f L 3...&.&.#.*.O.@.d.B.Z.Z.Z.B.d.#.O.*.&.&.&.+.<.( n n m h %   .                           ",
"                              - F n M f U 3...&.&.#.#.&.#.o.| o.o.o.#.&.&.&.&.&.%.=.` C l n F ,                                 ",
"                              . 7 F n M f U 3...&.&.&.&.&.&.&.&.&.&.&.&.&.&.&.+.,.' N l n F 4                                   ",
"                            .   % h m n V f H ,.=.%.&.&.&.&.&.&.&.&.&.&.&.&...3.) l n n V w #   .                               ",
"                                  - n n n M n f / 2.&.%.&.&.&.&.&.&.&.&.%.,.<.J f V n M g %                                     ",
"                                .   % g V n n M l f ! =.1.,.=.&.&.=.,.<...L f n m n V e $   .                                   ",
"                                    .   4 F n n n n n f f C I ! ! U C f h m n n n F 7                                           ",
"                      =               .   ; n n n n n n n n n n n n n n n n n m v -   .                                         ",
"                      w.                  .   - v m n n n n n n n n n n n m n ;                                                 ",
"                    x Q Z.                          1 v M n n n n n M v 4 X                                                     ",
"                      w.                                      .                                                                 ",
"                                                                                                                                ",
"                                                                                                                                ",
"                                                                                                                                ",
"                                                                                                                                ",
"                                                                                                                                ",
"                                                                                                                                ",
"                                                                                                                                ",
"                                                                                                                                ",
"                                                                                                                                ",
"                                                                                                                                ",
"                                                                                                                                ",
"                                                                                                                                ",
"                                                                                                                                "
};
