/* XPM */
static char *tuile_player_left_64x641747491006[] = {
/* columns rows colors chars-per-pixel */
"64 64 196 2 ",
"   c #000000",
".  c #0A0506",
"X  c #070902",
"o  c #0A0C03",
"O  c #090608",
"+  c #0B0B0A",
"@  c #120708",
"#  c #17090A",
"$  c #0D1003",
"%  c #14160D",
"&  c #141413",
"*  c #1A1513",
"=  c #1C1E15",
"-  c #1B1A1A",
";  c #240C0D",
":  c #2A0E0D",
">  c #34120E",
",  c #250F10",
"<  c #241A19",
"1  c #341514",
"2  c #391311",
"3  c #1D2400",
"4  c #1C220B",
"5  c #1E2310",
"6  c #2B350E",
"7  c #252A16",
"8  c #2D3614",
"9  c #353F10",
"0  c #2A2424",
"q  c #37292A",
"w  c #36312E",
"e  c #333432",
"r  c #3D3C3A",
"t  c #421511",
"y  c #481A1B",
"u  c #551C1B",
"i  c #591B1A",
"p  c #621E1D",
"a  c #6A1E1E",
"s  c #711E1D",
"d  c #7B1E1C",
"f  c #5E201D",
"g  c #64221E",
"h  c #6C221D",
"j  c #73221C",
"k  c #7C231C",
"l  c #4E1C27",
"z  c #561D23",
"x  c #651C21",
"c  c #482726",
"v  c #552223",
"b  c #5D2426",
"n  c #522927",
"m  c #52302B",
"M  c #493B39",
"N  c #58383A",
"B  c #642323",
"V  c #6D2423",
"C  c #6B2A24",
"Z  c #6D2529",
"A  c #632A2A",
"S  c #67282A",
"D  c #732423",
"F  c #7B2522",
"G  c #722827",
"H  c #7C2825",
"J  c #79292A",
"K  c #66332B",
"L  c #76352B",
"P  c #743933",
"I  c #3E491A",
"U  c #3D442B",
"Y  c #47502E",
"T  c #414635",
"R  c #4D4B36",
"E  c #4E5931",
"W  c #664133",
"Q  c #5E6C2E",
"!  c #687131",
"~  c #444441",
"^  c #4C4A49",
"/  c #574744",
"(  c #4E5344",
")  c #555B49",
"_  c #5E5A56",
"`  c #5B5C56",
"'  c #694B48",
"]  c #614D50",
"[  c #685A59",
"{  c #5E6451",
"}  c #64675B",
"|  c #707956",
" . c #6B6D63",
".. c #6C6F6A",
"X. c #71756B",
"o. c #811F1C",
"O. c #85271E",
"+. c #8A241C",
"@. c #92261B",
"#. c #98271E",
"$. c #A0291E",
"%. c #822524",
"&. c #8A2624",
"*. c #832C23",
"=. c #812C29",
"-. c #952D23",
";. c #932B26",
":. c #982B22",
">. c #8E3126",
",. c #883529",
"<. c #88312E",
"1. c #973429",
"2. c #9C392A",
"3. c #833531",
"4. c #933A32",
"5. c #A62A24",
"6. c #A82A27",
"7. c #AA2D28",
"8. c #A83724",
"9. c #A33429",
"0. c #A43A2E",
"q. c #AD3B2D",
"w. c #B53223",
"e. c #B93A27",
"r. c #A73B30",
"t. c #D43B2A",
"y. c #924531",
"u. c #A6452F",
"i. c #B9422E",
"p. c #AC4534",
"a. c #AA4A3A",
"s. c #B44333",
"d. c #B94937",
"f. c #D84C2D",
"g. c #C34632",
"h. c #CF4B31",
"j. c #C34E3C",
"k. c #D94A32",
"l. c #C3523E",
"z. c #CF543D",
"x. c #D95037",
"c. c #E35D3B",
"v. c #EE643C",
"b. c #954C49",
"n. c #815250",
"m. c #84675B",
"M. c #A1675C",
"N. c #986E61",
"B. c #94746C",
"V. c #8C7C72",
"C. c #927F73",
"Z. c #AD6C67",
"A. c #AB7C72",
"S. c #C05442",
"D. c #D95E42",
"F. c #D36146",
"G. c #CD6751",
"H. c #E66448",
"J. c #E2725D",
"K. c #70851E",
"L. c #7D8C4D",
"P. c #7A816F",
"I. c #E0873C",
"U. c #E2B03D",
"Y. c #939051",
"T. c #858F69",
"R. c #919E6B",
"E. c #86857D",
"W. c #918F72",
"Q. c #B38378",
"!. c #A6B679",
"~. c #EB9C46",
"^. c #FDBD57",
"/. c #B5C97C",
"(. c #FBC456",
"). c #8B8B88",
"_. c #92998C",
"`. c #A58880",
"'. c #A0928E",
"]. c #B4968D",
"[. c #ADB88F",
"{. c #B0BD8F",
"}. c #A2A3A0",
"|. c #B5AFA8",
" X c #CE938B",
".X c #E1BAAD",
"XX c #FCBDAF",
"oX c #B3C385",
"OX c #BEC9A3",
"+X c #FEE286",
"@X c #C7D3A9",
"#X c #CBD3BB",
"$X c #FACDBF",
"%X c #FCCBC0",
"&X c #F0D1C8",
"*X c #FEDDD1",
/* pixels */
"                                                                                                                                ",
"                                                                                                                                ",
"                                                                                                                                ",
"                                                            ~ R                                                                 ",
"        3 7                                                 ) !.X                                                               ",
"        K.#X-                                               X 4                                               + -               ",
"        3 8                                                                                                   } [.-             ",
"                                                                                                              ( T.&             ",
"                                                                                                              X +               ",
"                                                                                                                                ",
"                                  o 6 o                                                           O ~ ~ X                       ",
"                                   .oXT                                                           & }./.=                       ",
"                                  & 6 o                                                           X R Q X                       ",
"                                                                                                                                ",
"                                                                    X                                                           ",
"                                                                  X                                                             ",
"                                                                                                                                ",
"                                                                            w X.-                                               ",
"                                                                          ^ `.Y.T                                               ",
"                      X                                                 2 :.;.t.t.f                                             ",
"                                                                      ; F &.&.x D 2                                             ",
"                                5 X                                 O :.#.:.@.x O.,                                             ",
"                              - #XI                         5 - & & u p j k k i h .                                             ",
"                                U $                       O ].} E.P n.M.S Z Z Z S O $                                           ",
"                                                          O V.^ R F &X`.f.>.e.0.6.N ! 2 #                                       ",
"                                                        - e ] ~ Z '.$Xy.8.v *.4.6.| p i +.p                                     ",
"                                                      O ^ _ q N ' %XB.k.>.8.f c.7.u +.w.:.g X                             O     ",
"            X                                     O O.F.D.h.g.;.] Z.P j.S.l.l.d.&.u j -.w.p                                     ",
"                                              @ u G B h h C Z B Z o.s x p i g g B L S.a.A .               + ` { +               ",
"                                        O , j 9.2.u.p.s.i.d.q.H H r.q.&.k k k *.>.M ~ q >                 & [.!.&               ",
"                                  @ h 2.h.i.n c A B S B B D >.z.H.9.J 4.d.a.9.*. .[ ).).                    - 5                 ",
"                                  b.M.Q.A.N m U.U.~.~.~.I. ._.^ =.D.e.Z s.a.y.c r r _ T                                         ",
"                                  Z.Q.].]./ W +X(.(.^.(.~.V.|.X.v a.2.D D.J.G.K e e T -                                         ",
"                                  > 1.g.i.h.c c n n n v c y S 4.H.x.=.H 3.3.Z K ..[ ).V.O                                       ",
"            X                         . 2 < D q.i.d.g.d.d.g.z.q.J <.q.0.1.9.;.:.L ^ ` r                                         ",
"          X Y.|                               t k O.C C V V z l 1.&.o.%.d d d %.H S y.D.P .                                     ",
"            9 7                                 X % :.D.D.x.k.6.N b.B <.3.3.3.3.V b g j :.t                                     ",
"                                                    . ; N ' c N [ XXN.v.u.i.,.v.7.u @.w.w.B O                                   ",
"                                              X X       r _ M M K |..Xy.-.C S p.6.2 h D V k                                     ",
"                                            X o o         O C.` A P *XB.f.C e.>.6.; # i t                                       ",
"                                            X X           . W.` P.<.B. X4.9.1.;.=.O                                             ",
"                                                          X / w w 0 a y u a x z p O                 X 3                         ",
"                                                                    @ 5.o.#.@.x O.#                 I {.+                       ",
"                                                                      2 :.%.%.i z 1                 % X.+                       ",
"                                                                        u 5.$.t.t.H                                             ",
"                  X X                                                     m.].j :                                               ",
"                                                                                                                                ",
"                                                                            o 4                                                 ",
"                                        o Y +                               } OX7       T U                                     ",
"                                        Y @X7                               * ) +       R.L.                                    ",
"                                        o 6 X                                           + +                                     ",
"                                                                                                                                ",
"                                                                                                                                ",
"                                                                                                                                ",
"                                                                                                                                ",
"                                                                                                                                ",
"                                    E T.+                                                                                       ",
"                                    E T.X                                                                                       ",
"                                                                                                                                ",
"                                                                                                                                ",
"                                                                                        $ { %                                   ",
"                                                                    X                   6 {.6                                   ",
"                                                                                        X 4 X                                   ",
"                                                                                                                                "
};
