/* XPM */
static char *tuile_player_down1747299666[] = {
/* columns rows colors chars-per-pixel */
"64 64 22 1 ",
"  c black",
". c gray13",
"X c #232323",
"o c #353535",
"O c gray26",
"+ c #505050",
"@ c #4AA500",
"# c #64DF00",
"$ c #8F8E03",
"% c #A8A603",
"& c #84DF3A",
"* c #CBC804",
"= c #A4FF5A",
"- c #00A0AF",
"; c #00C3D5",
": c #6CCCD5",
"> c gray59",
", c #A5A5A5",
"< c gray65",
"1 c #A3D2D5",
"2 c #D5D5D5",
"3 c white",
/* pixels */
"                               --                               ",
"                               --                               ",
"                              -;;-                              ",
"                              -;;-                              ",
"                             -;::;-                             ",
"                             -;11;-                             ",
"                            -;:11:;-                            ",
"                            -;:11:;-                            ",
"                           -;:1111:;-                           ",
"                           -;:1111:;-                           ",
"                           -;:1111:;-                           ",
"            oo              -;:11:;-              oo            ",
"            OOooo    OOO    >>>>>>>>    OOO    oooOO            ",
"           oOOOOo  oOOOO    >><>><>>    OOOOo  oOOOOo           ",
"           oOOOOo XoooOO   ><><>><><>   OOoooX oOOOOo           ",
"           oOOOo XXXoooOO  ><><>><><>  OOoooXXX oOOOo           ",
"          oOOOOo   XXXXoo  ><><>><><>  ooXXXX   oOOOOo          ",
"          oOOOOo XX   XXXo ><><>><><> oXXX   XX oOOOOo          ",
"          oOOOOo XXXoo  XX            XX  ooXXX oOOOOo          ",
"          oOOOo XXooOOOO   oooooooooo   OOOOooXX oOOOo          ",
"         oOOOOo XooooOOOO  ooOOOOOOoo  OOOOooooX oOOOOo         ",
"         oOOOOo XXoooooooo oOOOOOOOOo ooooooooXX oOOOOo         ",
"         oooOOo  XXooooooo oOOOOOOOOo oooooooXX  oOOooo         ",
"         oOOooo  XXXXXX     OOOOOOOO     XXXXXX  oooOOo         ",
"        oOOOOOOoo   XXX oooo OOOOOO oooo XXX   ooOOOOOOo        ",
"        oOOOOOOOOooo   oOOOOo OOOO oOOOOo   oooOOOOOOOOo        ",
"        oOOOOOOOOOOOoo oOOOOo OOOO oOOOOo ooOOOOOOOOOOOo        ",
"         OOOOOOOOOOOOO oOOOOo OOOO oOOOOo OOOOOOOOOOOOO         ",
"       <<  OOOOOOOOOOO oOOOOo OOOO oOOOOo OOOOOOOOOOO  <<       ",
"       22<<  OOOOOOOOO oOOOOo OOOO oOOOOo OOOOOOOOO  <<22       ",
"       2222<< OOOOOOOO oOOOOo OOOO oOOOOo OOOOOOOO <<2222       ",
"       +22222 OOOOOOOO oOOOOo OOOO oOOOOo OOOOOOOO 22222+       ",
"       <++222 OOOOOOOO oOOOOo OOOO oOOOOo OOOOOOOO 222++<       ",
"      22<<++2 OOOOOOOO oOOOOo OOOO oOOOOo OOOOOOOO 2++<<22      ",
"      2222<<  oooOOOOOO oooo OOOOOO oooo OOOOOOooo  <<2222      ",
"      +22222 OOOOoooOOOO    OOOOOOOO    OOOOoooOOOO 22222+      ",
"      <++222 OOOOOOOoooOOo oOOOOOOOOo oOOoooOOOOOOO 222++<      ",
"     22<<++2 OOOOOOOOOOooo oOOOOOOOOo oooOOOOOOOOOO 2++<<22     ",
"     2222<<  ooOOOOOOOOOOo oOooOOooOo oOOOOOOOOOOoo  <<2222     ",
"      22222 OOOoooOOOOOOOo oo%*oo*%oo oOOOOOOOoooOOO 22222      ",
"        222 OOOOOOooOOOOOo oo*%$$%*oo oOOOOOooOOOOOO 222        ",
"          2 OOOOOOOOoooOOo ooo$%%$ooo oOOoooOOOOOOOO 2          ",
"            OOOOOOOOOOOoooo oOooooOo ooooOOOOOOOOOOO            ",
"            oOOOOOOOOOOOOoo  oOOOOo  ooOOOOOOOOOOOOo            ",
"            oOOOOOOOOOOOooo o oooo o oooOOOOOOOOOOOo            ",
"            oOOOOOOOOOOooo OOO    OOO oooOOOOOOOOOOo            ",
"            oOOOOOOOOOooo OOOOOOOOOOOO oooOOOOOOOOOo            ",
"             ooOOOOOOOoo OOOOOOOOOOOOOO ooOOOOOOOoo             ",
"               oooOOOoo oOOoooOOOOoooOOo ooOOOooo               ",
"                 ooooo > oo$*%oooo%*$oo > ooooo                 ",
"                   oo <> oo*%$%**%$%*oo >< oo                   ",
"         &             <> oo$%*%%*%$oo ><                       ",
"        3=@            <> oOoo%**%ooOo ><                       ",
"         <              <> oOOooooOOo ><                        ",
"         X                 oooooooooo                           ",
"                                                                ",
"                                                         &      ",
"                                                        33#     ",
"                                                         <      ",
"                                                         X      ",
"                                                                ",
"                                                                ",
"                                                                ",
"                                                                "
};
