/* XPM */
static char *tuile_exit_64x641747491008[] = {
/* columns rows colors chars-per-pixel */
"64 64 205 2 ",
"   c #000000",
".  c #0B0401",
"X  c #060804",
"o  c #0A0B03",
"O  c #020B09",
"+  c #0B0C0B",
"@  c #140905",
"#  c #1B0C03",
"$  c #091109",
"%  c #161708",
"&  c #031814",
"*  c #141413",
"=  c #1A1B14",
"-  c #1A1A1A",
";  c #281406",
":  c #371709",
">  c #2A1B16",
",  c #1C2307",
"<  c #2B340E",
"1  c #252A16",
"2  c #2B3311",
"3  c #092823",
"4  c #113325",
"5  c #471E0B",
"6  c #54250E",
"7  c #512E16",
"8  c #623511",
"9  c #3E4919",
"0  c #104339",
"q  c #3E442F",
"w  c #6F4A1A",
"e  c #424535",
"r  c #4C5434",
"t  c #4E5931",
"y  c #5E6C2E",
"u  c #0B4742",
"i  c #18584C",
"p  c #186251",
"a  c #166F66",
"s  c #434441",
"d  c #4A5744",
"f  c #575E48",
"g  c #5B5D57",
"h  c #5E6451",
"j  c #656A59",
"k  c #707956",
"l  c #6A6E62",
"z  c #71756A",
"x  c #9D351E",
"c  c #A0391F",
"v  c #9A3B26",
"b  c #87571D",
"n  c #A34E1C",
"m  c #B1521F",
"M  c #99432A",
"N  c #B75630",
"B  c #EE6C1F",
"V  c #EF721F",
"C  c #F1751F",
"Z  c #F37C1F",
"A  c #DA4C27",
"S  c #D74B29",
"D  c #D64A2B",
"F  c #C65A25",
"G  c #DB5727",
"H  c #E55B23",
"J  c #E35925",
"K  c #CA6824",
"L  c #DB6528",
"P  c #D47827",
"I  c #E56223",
"U  c #E96322",
"Y  c #E26922",
"T  c #ED6C22",
"R  c #F16E22",
"E  c #ED7223",
"W  c #F17521",
"Q  c #F27B21",
"!  c #927657",
"~  c #A26D4E",
"^  c #BA7344",
"/  c #70851E",
"(  c #1A877D",
")  c #308973",
"_  c #28987C",
"`  c #25A17F",
"'  c #3CB87E",
"]  c #7D8C4D",
"[  c #6DB95C",
"{  c #73BB5E",
"}  c #558D73",
"|  c #7A8567",
" . c #67936C",
".. c #58BE6C",
"X. c #4FA774",
"o. c #4DBA73",
"O. c #46B97B",
"+. c #54BD72",
"@. c #65BF64",
"#. c #7BC256",
"$. c #79C25B",
"%. c #53C474",
"&. c #69C165",
"*. c #73C663",
"=. c #B4B83B",
"-. c #F4841E",
";. c #F58B1E",
":. c #F88B1D",
">. c #F6921E",
",. c #F8971E",
"<. c #F89B1E",
"1. c #F9A31E",
"2. c #FAAB1F",
"3. c #C98230",
"4. c #F78627",
"5. c #F89327",
"6. c #F9A521",
"7. c #FAAC21",
"8. c #E9B627",
"9. c #FAB322",
"0. c #FBBB25",
"q. c #FBBD2A",
"w. c #BED53E",
"e. c #C6CC3D",
"r. c #DAD23C",
"t. c #FCC32B",
"y. c #FCC52A",
"u. c #EBC932",
"i. c #FCC632",
"p. c #F6CD35",
"a. c #FCC933",
"s. c #FBCD3B",
"d. c #EAD33D",
"f. c #F3D13B",
"g. c #FCD13D",
"h. c #929E53",
"j. c #88B152",
"k. c #858F69",
"l. c #889564",
"z. c #919E6B",
"x. c #92A363",
"c. c #A6B679",
"v. c #8DC54D",
"b. c #9ECE47",
"n. c #9BC54A",
"m. c #86C654",
"M. c #A4C847",
"N. c #ADCC44",
"B. c #A1C649",
"V. c #B2D046",
"C. c #B5C97C",
"Z. c #C9D341",
"A. c #D2DE47",
"S. c #E7DD4A",
"D. c #FCD443",
"F. c #FCD64B",
"G. c #F3DD4D",
"H. c #FBDA4D",
"J. c #FCDB53",
"K. c #FCDD5B",
"L. c #F8E056",
"P. c #FDE25C",
"I. c #FCDF64",
"U. c #FCE363",
"Y. c #FCE46B",
"T. c #FCE869",
"R. c #FCE673",
"E. c #FCEA74",
"W. c #FCE678",
"Q. c #FDEB7B",
"!. c #1B9482",
"~. c #1B9C85",
"^. c #199D8D",
"/. c #218D80",
"(. c #239F83",
"). c #229C8B",
"_. c #1BA38B",
"`. c #1DAB92",
"'. c #1FB396",
"]. c #1FB398",
"[. c #24A785",
"{. c #23A589",
"}. c #27AC88",
"|. c #32A984",
" X c #2CB186",
".X c #25B18F",
"XX c #2DB18B",
"oX c #36B987",
"OX c #23AC91",
"+X c #22B393",
"@X c #29B593",
"#X c #43BB81",
"$X c #3BC184",
"%X c #40C181",
"&X c #AFBB8F",
"*X c #9EBEA8",
"=X c #A2A3A0",
"-X c #B3C385",
";X c #BEC9A3",
":X c #FDEE84",
">X c #FCEF8B",
",X c #FCF18B",
"<X c #FCF292",
"1X c #FDF499",
"2X c #C9D2B4",
/* pixels */
"                                                                                                                                ",
"                                                                                                                                ",
"                                                                                                                                ",
"                                                            e d                                                                 ",
"        , 1                                                 f c.X                                                               ",
"        / 2X-                                               X ,                                               + -               ",
"        , 1                                                                                                   j &X-             ",
"        X                                                                                                     d k.*             ",
"                                                                                                              X +               ",
"                                                                                                                                ",
"                                  o < o                                                           X s s X                       ",
"                                  l -Xe     X                                                     * =XC.=                       ",
"                                  * < o                             X                             X r y X                       ",
"                                                                                                                                ",
"                                                                X X                                                             ",
"                                                        & ) #XoXOX+X.X{.                                                        ",
"                                                  & ) ' O.%.[.[._ ( {.{.i p oXoXoX3 O                                           ",
"                                        X       ) &...' ` ~. X X[.[. X|.|.XX}.{.).XX_                                           ",
"                                      a @X@XO XX$.&.oXoX{ v.n.#.B.B.M.N...+.+.O.|.4 X                                           ",
"                      X             a +X).0 [.$.%.oX..n.e.e.e.e.Z.u.N.n.B.B.B.{ { X.&                                           ",
"                                  u ].`.( (.@...$Xm.n.e.d.f.D.p.s.0.0.0.0.9.=.8.8.j.X.d X                                       ",
"                                = ( '.!.( { +.o.m.M.r.G.H.g.g.g.P.P.s.g.s.0.9.,.4.Q ^ ! | -                                     ",
"                              - *X+X{._ oX$.%Xm.V.r.T.H.y.9.6.2.2.2.0.T.T.P.y.0.0.:.Q R L M 7                                   ",
"                                {.'.( ` @.$X*.Z.d.U.J.t.5.b       X ; P 6.P.J.i.i.0.7.Q W T J D D @ X                           ",
"                              u ]._./.o.%.$XN.d.T.G.9.w                   W U.U.E.H.9.7.6.Q Q T H A D v @                       ",
"                              ( ].!.~...%.m.r.L.L.q.w X                     W U.Y.Y.U.s.9.7.1.C :.U H A D :                     ",
"                              ^._.( ' { $Xb.S.T.s.3.                          Q P.:XR.I.D.9.9.0.;.I C R A D .             X     ",
"            X               & `.!.` o.&.v.S.E.J.9.                            # 9.F.Q.:XI.J.0.q.9.5.H B T 6                     ",
"                            & `.!._.m.&.w.d.R.s.5.                              U g.R.>XW.K.i.9.0.2.T H T > g h +               ",
"                            & `.` }.#.%.V.G.J.a.#                               I 0.Y.R.:XY.a.2.y.2.-.I T > c.c.*   O           ",
"                            3 `.~. X#.b.A.E.J.7.  < <                           H 0.I.W.<XY.y.2.y.1.-.J J   - -                 ",
"                            3 +X_.[ #.b.A.E.J.7.X l.l.                1 <       J s.R.>X<XK.9.y.y.,.I G 6                       ",
"                          X 4 XX' { N.u.G.Q.U.6.. % %                 | x.X     C H.>X>XY.s.y.i.9.>.E :                         ",
"                          + p |.[ j.6.s.Y.:XK.7.7                     $ %     . 1.K.>XU.F.q.a.q.,.Q #                           ",
"                          O )  .h.>.i.F.U.:XR.i.E                             R t.Q.Y.J.i.t.0.5.-.#                             ",
"          X h.k           * } ^ ,.2.D.J.R.<X,XJ.9.;                       . R q.E.U.F.y.q.9.-.-.                                ",
"            2 1         X s ~ W 2.1.F.J.R.:X1XR.s.4.                    . :.q.U.K.g.a.q.9.:.P #                                 ",
"            X           @ N J -.9.2.F.R.Y.R.1X<XE.s.5.        ; . . ; W 1.t.D.g.a.t.9.;.:.K .                                   ",
"                        N H :.Z 0.0.D.Q.R.R.Y.<X<X:Xg.q.1.-.G F T :.,.9.a.a.a.i.0.<.:.-.Q                                       ",
"                      X A U :.V 2.t.9.s.,X:X:XU.P.:X,X:XU.F.F.a.t.y.y.y.y.0.2.:.-.-.E 6                                         ",
"                        A U :.B :.1.y.2.0.g.P.L.J.J.J.G.J.D.D.a.i.0.9.2.2.:.C C W m X                                           ",
"                        x H V -.U Z ;.9.y.0.9.9.9.9.6.y.7.9.9.9.2.,.>.>.Z C Y L 5                   X ,                         ",
"                          c J R Z Z U I Z ;.;.;.>.;.;.<.<.<.-.T I I n n ; ; .                       9 &X+                       ",
"                              : m C Z C C -.Y L F K 8 : X # X                                       % z +                       ",
"                                    .     . . X                                                                                 ",
"                  X X                                                                                                           ",
"                                                                                                                                ",
"                                                                            + ,                                                 ",
"                                        o e X                               l ;X1       q q                                     ",
"                                        t 2X1                               * f X       z.]                                     ",
"                                        o < X                                           * X                                     ",
"                                                                                                                                ",
"                                                                                                                                ",
"                                                                                                                                ",
"                                                                                                                                ",
"                                      X                                                                                         ",
"                                    t k.X                                                                                       ",
"                                    t k.X                                                                                       ",
"                                                                                                                                ",
"                                                                                                                                ",
"                                                                                        o j *                                   ",
"                                                                    X                   < -X<                                   ",
"                                                                                        X , X                                   ",
"                                                                                                                                "
};
