/* XPM */
static char *tuile_player_down_64x641747491006[] = {
/* columns rows colors chars-per-pixel */
"64 64 200 2 ",
"   c #000000",
".  c #0A0506",
"X  c #070902",
"o  c #0A0B03",
"O  c #090608",
"+  c #0B0B0A",
"@  c #120708",
"#  c #17090A",
"$  c #0D1003",
"%  c #141A03",
"&  c #14160D",
"*  c #141413",
"=  c #1A1513",
"-  c #1C1E15",
";  c #1B1A1A",
":  c #240C0D",
">  c #2A0E0D",
",  c #34120E",
"<  c #250F10",
"1  c #24191A",
"2  c #341311",
"3  c #391311",
"4  c #361818",
"5  c #1D2400",
"6  c #1C220B",
"7  c #1E2310",
"8  c #2B350E",
"9  c #252A16",
"0  c #2D3614",
"q  c #353F10",
"w  c #2A2424",
"e  c #37292A",
"r  c #36312E",
"t  c #323331",
"y  c #3D3C3A",
"u  c #461818",
"i  c #551C1B",
"p  c #591B1A",
"a  c #621E1D",
"s  c #6A1E1E",
"d  c #711E1D",
"f  c #7B1E1C",
"g  c #58221C",
"h  c #64221E",
"j  c #6C221D",
"k  c #73221C",
"l  c #7C231C",
"z  c #4E1C27",
"x  c #561D23",
"c  c #651C21",
"v  c #482726",
"b  c #552223",
"n  c #5D2426",
"m  c #522927",
"M  c #52302B",
"N  c #483B3A",
"B  c #58383A",
"V  c #642323",
"C  c #6D2423",
"Z  c #6B2A24",
"A  c #6D2529",
"S  c #67282A",
"D  c #642A2A",
"F  c #732423",
"G  c #7B2522",
"H  c #722827",
"J  c #7C2825",
"K  c #79292A",
"L  c #66332B",
"P  c #76352B",
"I  c #743933",
"U  c #3E491A",
"Y  c #3D442B",
"T  c #47502E",
"R  c #414635",
"E  c #554239",
"W  c #4E5931",
"Q  c #515A37",
"!  c #664133",
"~  c #5E6C2E",
"^  c #434441",
"/  c #4C4A49",
"(  c #574744",
")  c #4E5344",
"_  c #555B49",
"`  c #5E5A56",
"'  c #5B5C56",
"]  c #694B48",
"[  c #60534F",
"{  c #685A59",
"}  c #5E6451",
"|  c #64675B",
" . c #707956",
".. c #6B6D63",
"X. c #6C6F6A",
"o. c #71756B",
"O. c #811F1C",
"+. c #85271E",
"@. c #8A241C",
"#. c #92261B",
"$. c #98271E",
"%. c #A0291E",
"&. c #822524",
"*. c #8A2624",
"=. c #832C23",
"-. c #8C2B21",
";. c #812C29",
":. c #952C23",
">. c #932B26",
",. c #982B22",
"<. c #8E3126",
"1. c #82322C",
"2. c #883529",
"3. c #88312E",
"4. c #973429",
"5. c #9C392A",
"6. c #833531",
"7. c #933A32",
"8. c #A62A24",
"9. c #A82A27",
"0. c #AA2D28",
"q. c #A53325",
"w. c #A83724",
"e. c #A33429",
"r. c #A43A2E",
"t. c #AD3B2D",
"y. c #B53223",
"u. c #B93A27",
"i. c #A73B30",
"p. c #CE3A29",
"a. c #D43B2A",
"s. c #924531",
"d. c #A6452F",
"f. c #B9422E",
"g. c #AC4534",
"h. c #AA4A3A",
"j. c #B44333",
"k. c #B94937",
"l. c #C0462D",
"z. c #D84C2D",
"x. c #C34632",
"c. c #CF4B31",
"v. c #C34E3C",
"b. c #D94A32",
"n. c #C3523E",
"m. c #CF543D",
"M. c #D95037",
"N. c #E35D3B",
"B. c #EE643C",
"V. c #954C49",
"C. c #815250",
"Z. c #A1675C",
"A. c #986E61",
"S. c #93746C",
"D. c #98716C",
"F. c #8C7C72",
"G. c #927F73",
"H. c #AD6C67",
"J. c #AB7C72",
"K. c #C05442",
"L. c #D95E42",
"P. c #D36146",
"I. c #CD6751",
"U. c #E66448",
"Y. c #E2725D",
"T. c #70851E",
"R. c #7D8C4D",
"E. c #7A816F",
"W. c #E0873C",
"Q. c #E2B03D",
"!. c #8C9D56",
"~. c #98AC5F",
"^. c #858F69",
"/. c #919E6B",
"(. c #86857D",
"). c #918F72",
"_. c #B38378",
"`. c #A6B679",
"'. c #EB9C46",
"]. c #ECA244",
"[. c #FDBD57",
"{. c #B5C97C",
"}. c #FBC456",
"|. c #8B8B88",
" X c #A0928E",
".X c #B4968D",
"XX c #ADB88F",
"oX c #B0BD8F",
"OX c #A2A3A0",
"+X c #B5AFA8",
"@X c #CE938B",
"#X c #E1BAAD",
"$X c #B3C385",
"%X c #BEC9A3",
"&X c #FEE286",
"*X c #C7D3A9",
"=X c #CBD3BB",
"-X c #FACDBF",
";X c #F0D1C8",
":X c #FEDDD1",
/* pixels */
"                                                                                                                                ",
"                                                                                                                                ",
"                                                                                                                                ",
"                                                            ^ Q                                                                 ",
"        5 9                                                 _ `.X                                                               ",
"        T.=X;                                               X 6                                               + ;               ",
"        5 0                                                                                                   | XX;             ",
"                                                                                                              ) ^.*             ",
"                                                                                                              X +               ",
"                                                                                                                                ",
"                                  o 8 +                                                           O ^ ^ X                       ",
"                                X ..$XY                                                           * OX{.-                       ",
"                                  = 8 o                                                           X Q ~ X                       ",
"                                                                                                                                ",
"                                                                    X                                                           ",
"                                                                  X                                                             ",
"                                                                                                                                ",
"                                                    .                       t o.;                                               ",
"                                                  p h a .             . u C l ~.Q                                               ",
"                      X                         # @.:.y.S ,           P :.y.j g o                                               ",
"                                                3 p y.:.h.e F.^ 9 (.y L.F y.F p                                                 ",
"                                7 X             X a @.d K.^ |.' y |.' 7.V #.s #         X                                       ",
"                              ; =XU   a 4 < .   < : i i P N { y t } / S V i 2 : . . # 4 J                                       ",
"                                Y %   a.K +.j S 9.8.0.*.V 4.X.R t X.1.J c 0.9.9.;.g +.x a.>                                     ",
"                                    2 p.V c a A q.4.B.k.h =.=.e L L >.&.6.B.g.<.>.x c x a.d                                     ",
"                                    S.:.*.#.l A u.1.b n.V l e.7.I.A >.f 6.2.S u.5.s #.G %..X                                    ",
"                                    / ,.&.%.k A <.n y.k.c k h.k.Y.I e.f 1.l.Z Z e.p $.&.0.C.X                             X     ",
"            X                         3 G $.k S c.w.2.K.c f k.h.U.6.4.f 6.d.:.z.7.p @.>.p                                       ",
"                                        : $.h H._.s.b.n.d @.7.F K J r.f 3.B.s.S.@Xu 8.3                   + ' } +               ",
"                                            i C.;X;XD.I k t.K u.5.;.u.O.n A.#X:XD.a @                     * XX`.*               ",
"                                            * I H  X-XH.f i.e.L.h.M.6.*.V.-X+XI 3.w                         7 ;                 ",
"                                            * (.E L ] ( A J U.;.b U.&.>.S { B n E.r                                             ",
"                                            * | / ^ B *.V J m./ o.7.r.x 0.B N _ { r                                             ",
"                                            ; .X).[ e x.A t.-. X+XS m.x b.v N G.)./                                             ",
"                                              X . e ` c.Z k.A ..F.z v.Z M.] ` . . X                                             ",
"          X !. .                                  ; / P.F f.D W.'.v k.j N.B y                                                   ",
"            q 9                                     O P.V j.V '.[.m k.j L.:                                                     ",
"                                                      &.V d.V ].}.m k.Z ,.+                                                     ",
"                                              o       + j d.M ].}.m k.-.#           X                                           ",
"                                              $ $       p r.D ].}.b f.G                                                         ",
"                                            X   X       @ q.z Q.&Xe u.3                                                         ",
"                                                          k M v ! v l X                             X 5                         ",
"                                                          < j.! ( c.1                               U oX+                       ",
"                                                          O c.J..Xl.3                               & o.+                       ",
"                                                            q.J..Xx.O                                                           ",
"                  X X                                       j Z._.<.                                                            ",
"                                                            @ V.H.2                                                             ",
"                                                                X           + 6                                                 ",
"                                        o T +                               | %X9       R Y                                     ",
"                                        T *X9                               = _ +       /.R.                                    ",
"                                        o 0 X                                           + +                                     ",
"                                                                                                                                ",
"                                                                                                                                ",
"                                                                                                                                ",
"                                                                                                                                ",
"                                                                                                                                ",
"                                    W ^.+                                                                                       ",
"                                    W ^.X                                                                                       ",
"                                                                                                                                ",
"                                                                                                                                ",
"                                                                                        $ } &                                   ",
"                                                                    X                   0 oX8                                   ",
"                                                                                        X 6 X                                   ",
"                                                                                                                                "
};
