/* XPM */
static char *tuile_asteroid_21747491611[] = {
/* columns rows colors chars-per-pixel */
"64 64 151 2 ",
"   c #000000",
".  c #060902",
"X  c #0A0C03",
"o  c #0B0B0B",
"O  c #021007",
"+  c #0D1003",
"@  c #06180C",
"#  c #101400",
"$  c #191F06",
"%  c #14160D",
"&  c #071C11",
"*  c #141414",
"=  c #1A1A1A",
"-  c #1D2400",
";  c #1C220B",
":  c #0D2417",
">  c #0D271A",
",  c #0F2C1C",
"<  c #153319",
"1  c #2B350E",
"2  c #242912",
"3  c #212518",
"4  c #292E1B",
"5  c #353F10",
"6  c #133523",
"7  c #1A3E2A",
"8  c #133A30",
"9  c #363833",
"0  c #104A1F",
"q  c #2D4E1D",
"w  c #3E491A",
"e  c #3C4523",
"r  c #285C3E",
"t  c #31643F",
"y  c #47502E",
"u  c #404730",
"i  c #424638",
"p  c #4E5931",
"a  c #50583A",
"s  c #5E6C2E",
"d  c #2A5F45",
"f  c #2D6345",
"g  c #326C4D",
"h  c #387248",
"j  c #316F52",
"k  c #327356",
"l  c #327D5F",
"z  c #1C6868",
"x  c #297565",
"c  c #2F7C61",
"v  c #29706F",
"b  c #327D63",
"n  c #434441",
"m  c #4E5442",
"M  c #575E48",
"N  c #5B5D57",
"B  c #5D6740",
"V  c #5E6451",
"C  c #707956",
"Z  c #666763",
"A  c #6A6E62",
"S  c #71746C",
"D  c #1A9300",
"F  c #229505",
"G  c #3C9F1C",
"H  c #2E9125",
"J  c #358E3F",
"K  c #70851E",
"L  c #44A907",
"P  c #49A61E",
"I  c #68BC13",
"U  c #459A39",
"Y  c #56A436",
"T  c #78BE27",
"R  c #6AAF3C",
"E  c #77BD36",
"W  c #3C8E44",
"Q  c #3D8957",
"!  c #37835B",
"~  c #39835E",
"^  c #3C8364",
"/  c #42895C",
"(  c #4B9354",
")  c #579852",
"_  c #7C8A49",
"`  c #639E58",
"'  c #61A845",
"]  c #68A84E",
"[  c #73BC44",
"{  c #71AB53",
"}  c #408564",
"|  c #408468",
" . c #7AB762",
".. c #82C823",
"X. c #89CC29",
"o. c #93CD2C",
"O. c #96D42A",
"+. c #98D02C",
"@. c #8CCA3A",
"#. c #BBDD34",
"$. c #BCE434",
"%. c #C5E737",
"&. c #CEED39",
"*. c #D4E834",
"=. c #DDF431",
"-. c #DCF539",
";. c #E7F73A",
":. c #F1FA33",
">. c #8C9D56",
",. c #87B74B",
"<. c #858F69",
"1. c #899466",
"2. c #919E6B",
"3. c #A8B972",
"4. c #A5B47D",
"5. c #8BC744",
"6. c #B7D858",
"7. c #B5C97C",
"8. c #A2D376",
"9. c #DCFC4C",
"0. c #C7E467",
"q. c #DBF077",
"w. c #EDFA6C",
"e. c #E8F174",
"r. c #8A8E81",
"t. c #ADB88F",
"y. c #B0BD8F",
"u. c #A2A3A0",
"i. c #B3C385",
"p. c #BFE197",
"a. c #BEC9A3",
"s. c #CEE68F",
"d. c #E8F684",
"f. c #F4FC98",
"g. c #C7D3A9",
"h. c #CBD3BB",
"j. c #D8EEAC",
"k. c #DFF1B0",
"l. c #EDF6AC",
"z. c #F8FDAB",
"x. c #E8F5BD",
"c. c #F5F8B7",
"v. c #F5F8BF",
"b. c #EBF5C5",
"n. c #EFF7C8",
"m. c #F5FAC7",
"M. c #F4FAD4",
"N. c #FFFFD2",
"B. c #F5F9DD",
"V. c #FFFFF5",
"C. c #FFFFFE",
/* pixels */
"                                                                                                                                ",
"                                                                                                                                ",
"                                                                                                                                ",
"                                                            i a                                                                 ",
"        - 4                                                 M 4..                                                               ",
"        K h.=                                               . ;                                               o =               ",
"        - 4                                                                                                   A t.=             ",
"                                                                                                              m 1.*             ",
"                                                                                                              . o               ",
"                                                                                                                                ",
"                                  X 1 o                                                           . n n .                       ",
"                                  A i.u                                                           * u.7.=                       ",
"                                  * 1 X                               .                           . a s .                       ",
"                                                                                                                                ",
"                                                                  .                                                             ",
"                                                                  .                                                             ",
"                                                                                                                                ",
"                                                                            9 A =                                               ",
"                                                                            Z s.a                                               ",
"                      .                                                     o 3 X                                               ",
"                                                                                                                                ",
"                                ; .                                                                                             ",
"                              = h.w                         .                                                                   ",
"                                e #                                                 +                                           ",
"                                                                                . 9 _ o                                         ",
"                                                                                o r.6.3                                         ",
"                                                                                  9 B .                                   .     ",
"            .                                                     @ , 7 > &                                                     ",
"                                                      > r b b ^ / ) ,.,.] { ` c x 8                       o N V o               ",
"                                            7 j | | Q W Y T ....+.X.o.+.#.*.;.:.=.5.l f                   * 4.3.=               ",
"                                      t ^ Q J H F D F G [ 8.p.j.x.m.N.N.N.M.b.n.c.e.;.R h                   = =                 ",
"                                    0 ! U P I 5.s.N.C.C.C.C.C.C.C.C.V.V.V.C.C.B.M.m.e.9.z                                       ",
"                                        q k v ~ U G L I @.6.0.q.d.f.f.z.c.l.k.x.v.l.w. .h                                       ",
"                                                < g ^ } ( ' E X.O.$.%.&.-.;.-.&.$.,.Q r                                         ",
"            .                                           . 6 d k b b ! ~ ~ c c c j <                                             ",
"          . >.C                                                   O > , : @ .                                                   ",
"            5 2                                                                                                                 ",
"                                                                                                                                ",
"                                              .                                     X                                           ",
"                                              + +                                                                               ",
"                                            . .                                                                                 ",
"                                                                                                    . $                         ",
"                                                                  .                                 w i.o                       ",
"                                                                                                    % S o                       ",
"                                                                                                                                ",
"                  X .                                                                                                           ",
"                                                                                                                                ",
"                                                                            X ;                                                 ",
"                                        X y X                               Z a.2       u u                                     ",
"                                        y g.2                               % M X     . 2._                                     ",
"                                        o 1 .                                           o o                                     ",
"                                                                                                                                ",
"                                                                                                                                ",
"                                                                                                                                ",
"                                                                                                                                ",
"                                                                                                                                ",
"                                    p <.X                                                                                       ",
"                                    p <.o                                                                                       ",
"                                                                                                                                ",
"                                                                                                                                ",
"                                                                                        + V %                                   ",
"                                                                    .                   1 y.1                                   ",
"                                                                                        . ; .                                   ",
"                                                                                                                                "
};
