/* XPM */
static char *b32cbffcd00140feca23322c66070fdf7KLPiwHM3RbiYbNJ[] = {
/* columns rows colors chars-per-pixel */
"64 64 21 1 ",
"  c black",
". c gray13",
"X c #232323",
"o c #353535",
"O c gray26",
"+ c #505050",
"@ c #4AA500",
"# c #64DF00",
"$ c #8F8E03",
"% c #A8A603",
"& c #84DF3A",
"* c #CBC804",
"= c #A4FF5A",
"- c #00A0AF",
"; c #00C3D5",
": c #6CCCD5",
"> c gray59",
", c #A5A5A5",
"< c #A3D2D5",
"1 c #D5D5D5",
"2 c white",
/* pixels */
"                                                                ",
"                                                                ",
"                                                                ",
"                                                                ",
"      .                                                         ",
"      ,                                                         ",
"     #22                                                        ",
"      &                                                         ",
"                                                                ",
"                           oooooooooo                 .         ",
"                        ,> oOOooooOOo >,              ,         ",
"                       ,> oOoo%**%ooOo >,            @=2        ",
"                       ,> oo$%*%%*%$oo >,             &         ",
"                   oo ,> oo*%$%**%$%*oo >, oo                   ",
"                 ooooo > oo$*%oooo%*$oo > ooooo                 ",
"               oooOOOoo oOOoooOOOOoooOOo ooOOOooo               ",
"             ooOOOOOOOoo OOOOOOOOOOOOOO ooOOOOOOOoo             ",
"            oOOOOOOOOOooo OOOOOOOOOOOO oooOOOOOOOOOo            ",
"            oOOOOOOOOOOooo OOO    OOO oooOOOOOOOOOOo            ",
"            oOOOOOOOOOOOooo o oooo o oooOOOOOOOOOOOo            ",
"            oOOOOOOOOOOOOoo  oOOOOo  ooOOOOOOOOOOOOo            ",
"            OOOOOOOOOOOoooo oOooooOo ooooOOOOOOOOOOO            ",
"          1 OOOOOOOOoooOOo ooo$%%$ooo oOOoooOOOOOOOO 1          ",
"        111 OOOOOOooOOOOOo oo*%$$%*oo oOOOOOooOOOOOO 111        ",
"      11111 OOOoooOOOOOOOo oo%*oo*%oo oOOOOOOOoooOOO 11111      ",
"     1111,,  ooOOOOOOOOOOo oOooOOooOo oOOOOOOOOOOoo  ,,1111     ",
"     11,,++1 OOOOOOOOOOooo oOOOOOOOOo oooOOOOOOOOOO 1++,,11     ",
"      ,++111 OOOOOOOoooOOo oOOOOOOOOo oOOoooOOOOOOO 111++,      ",
"      +11111 OOOOoooOOOO    OOOOOOOO    OOOOoooOOOO 11111+      ",
"      1111,,  oooOOOOOO oooo OOOOOO oooo OOOOOOooo  ,,1111      ",
"      11,,++1 OOOOOOOO oOOOOo OOOO oOOOOo OOOOOOOO 1++,,11      ",
"       ,++111 OOOOOOOO oOOOOo OOOO oOOOOo OOOOOOOO 111++,       ",
"       +11111 OOOOOOOO oOOOOo OOOO oOOOOo OOOOOOOO 11111+       ",
"       1111,, OOOOOOOO oOOOOo OOOO oOOOOo OOOOOOOO ,,1111       ",
"       11,,  OOOOOOOOO oOOOOo OOOO oOOOOo OOOOOOOOO  ,,11       ",
"       ,,  OOOOOOOOOOO oOOOOo OOOO oOOOOo OOOOOOOOOOO  ,,       ",
"         OOOOOOOOOOOOO oOOOOo OOOO oOOOOo OOOOOOOOOOOOO         ",
"        oOOOOOOOOOOOoo oOOOOo OOOO oOOOOo ooOOOOOOOOOOOo        ",
"        oOOOOOOOOooo   oOOOOo OOOO oOOOOo   oooOOOOOOOOo        ",
"        oOOOOOOoo   ... oooo OOOOOO oooo ...   ooOOOOOOo        ",
"         oOOooo  ......     OOOOOOOO     ......  oooOOo         ",
"         oooOOo  ..ooooooo oOOOOOOOOo ooooooo..  oOOooo         ",
"         oOOOOo ..oooooooo oOOOOOOOOo oooooooo.. oOOOOo         ",
"         oOOOOo .ooooOOOO  ooOOOOOOoo  OOOOoooo. oOOOOo         ",
"          oOOOo ..ooOOOO   oooooooooo   OOOOoo.. oOOOo          ",
"          oOOOOo ...oo  ..            ..  oo... oOOOOo          ",
"          oOOOOo ..   ...o >,>,>>,>,> o...   .. oOOOOo          ",
"          oOOOOo   ....oo  >,>,>>,>,>  oo....   oOOOOo          ",
"           oOOOo ...oooOO  >,>,>>,>,>  OOooo... oOOOo           ",
"           oOOOOo .oooOO   >,>,>>,>,>   OOooo. oOOOOo           ",
"           oOOOOo  oOOOO    >>,>>,>>    OOOOo  oOOOOo           ",
"            OOooo    OOO    >>>>>>>>    OOO    oooOO            ",
"            oo              -;:<<:;-              oo            ",
"                           -;:<<<<:;-                           ",
"                           -;:<<<<:;-                           ",
"                           -;:<<<<:;-                           ",
"                            -;:<<:;-                            ",
"                            -;:<<:;-                            ",
"                             -;<<;-                             ",
"                             -;::;-                             ",
"                              -;;-                              ",
"                              -;;-                              ",
"                               --                               ",
"                               --                               "
};
