/* XPM */
static char *tuile_player_left1747299666[] = {
/* columns rows colors chars-per-pixel */
"64 64 23 1 ",
"  c black",
". c #020301",
"X c gray13",
"o c #232323",
"O c #353535",
"+ c gray26",
"@ c #505050",
"# c #4AA500",
"$ c #64DF00",
"% c #8F8E03",
"& c #A8A603",
"* c #84DF3A",
"= c #CBC804",
"- c #A4FF5A",
"; c #00A0AF",
": c #00C3D5",
"> c #6CCCD5",
", c gray59",
"< c #A5A5A5",
"1 c gray65",
"2 c #A3D2D5",
"3 c #D5D5D5",
"4 c white",
/* pixels */
"                                                                ",
"                                                                ",
"                                                                ",
"                                                                ",
"                                                                ",
"                         33                                     ",
"                        3331@33                                 ",
"                        331@3331@331                            ",
"           4           3331@33<@3331 OOO                        ",
"         X<-*          331@333<@331 ++++OOOO                    ",
"           #          3331@331@3331 +++++O++OOOO                ",
"                          3331@331 ++++++O++++++OOO   .         ",
"                 OOOO++++     3331 +++++O+++++++++++O           ",
"                O++++++++O+++     ++++++O+++++++++++O           ",
"                O++++++++O+++O++++++++++OOOOO++++++O            ",
"               O++++++++O++++O+++++++++O     OOOO++O            ",
"               O++++++++O++++O+++++++++O  ooo    OOO            ",
"              OO++++++++O+++O+++++++++O oooOooo o               ",
"              O++++++++O++++O+++++++++O ooOOOoo oo              ",
"             OO++++++++O++++O+++++++++O oOOOOo ooOO             ",
"             OO+++++++O++++O+++++++++O ooOOO+O oOO+             ",
"              OO++++++O++++O+++++++++O ooOO++O oOO++            ",
"             < OOO++++O++++O++         ooOO++ ooO+++            ",
"           <<,, OOO++O++++O++ OOOOOOOOO  OO++ oO++++            ",
"          <,,  O OOO+O++++O+ O+++++++++O OO+ ooO+               ",
"          ,  OO++ OOOOOOOOOO O+++++++++O OO  oO                 ",
"           OOOO+++ OOO       O+++++++++O                        ",
"         OO+O=%O+++   OOOOOO O+++++++++O OOOO ,,,,   ;;;        ",
"         O+O%&=O+++O OOOO++++ OOOOOOOOO +++OO 1111,,;:::;;      ",
"         O+O&%&O+++ O+O=&O++++         +++++O ,,,,,,:>>>::;;    ",
"         OO&=&O+++ O+O%&=O++++++++++++++++++O 11111,>222>>::;;  ",
"         OO=&=O+++ O+O&%O+++++++++++++++++++O ,,,,,,2222222>::;;",
"         OO=&=O+++ O+O&%O+++++++++++++++++++O ,,,,,,2222222>::;;",
"         OO&=&O+++ O+O%&=O++++++++++++++++++O 11111,>222>>::;;  ",
"         O+O&%&O+++ O+O=&O++++         +++++O ,,,,,,:>>>::;;    ",
"         O+O%&=O+++O OOOO++++ OOOOOOOOO +++OO 1111,,;:::;;      ",
"         OO+O=%O+++   OOOOOO O+++++++++O OOOO ,,,,   ;;;        ",
"           OOOO+++ OOO       O+++++++++O                        ",
"          ,  OO++ OOOOOOOOOO O+++++++++O OO  oO                 ",
"          1,,  O OOO+O++++O+ O+++++++++O OO+ ooO+               ",
"           11,, OOO++O++++O++ OOOOOOOOO  OO++ oO++++            ",
"             1 OOO++++O++++O++         ooOO++ ooO+++            ",
"              OO++++++O++++O+++++++++O ooOO++O oOO++            ",
"             OO+++++++O++++O+++++++++O ooOOO+O oOO+             ",
"             OO++++++++O++++O+++++++++O oOOOOo ooOO             ",
"              O++++++++O++++O+++++++++O ooOOOoo oo              ",
"              OO++++++++O+++O+++++++++O oooOooo o               ",
"               O++++++++O++++O+++++++++O  ooo    OOO            ",
"               O++++++++O++++O+++++++++O     OOOO++O            ",
"                O++++++++O+++O++++++++++OOOOO++++++O            ",
"                O++++++++O+++     ++++++O+++++++++++O           ",
"                 OOOO++++     3331 +++++O+++++++++++O           ",
"                          3331@331 ++++++O++++++OOO             ",
"                      3331@331@3331 +++++O++OOOO                ",
"                       331@3331@331 ++++OOOO                    ",
"                       3331@331@3331 OOO                        ",
"      4                 331@3331@331                            ",
"    X<4*                3331@33                                 ",
"      $                  33                                     ",
"                                                                ",
"                                                                ",
"                                                                ",
"                                                                ",
"                                                                "
};
