/* XPM */
static char *tuile_asteroid1747484081[] = {
/* columns rows colors chars-per-pixel */
"64 64 138 2 ",
"   c #030005",
".  c #080005",
"X  c #040008",
"o  c #0B020B",
"O  c #130106",
"+  c #140109",
"@  c #050013",
"#  c #0C0413",
"$  c #140812",
"%  c #1A0A15",
"&  c #120719",
"*  c #18061D",
"=  c #14091B",
"-  c #1F0F1C",
";  c #200D18",
":  c #380E12",
">  c #25121E",
",  c #29111F",
"<  c #160B23",
"1  c #1B0D26",
"2  c #210F21",
"3  c #261321",
"4  c #291322",
"5  c #2A1629",
"6  c #2B1A2D",
"7  c #32122A",
"8  c #3E1B2A",
"9  c #320F33",
"0  c #2E1B31",
"q  c #261939",
"w  c #2C1C3D",
"e  c #321D34",
"r  c #351F3C",
"t  c #35213D",
"y  c #38213D",
"u  c #630B14",
"i  c #7F0715",
"p  c #700D11",
"a  c #780F14",
"s  c #7D0F19",
"d  c #66101C",
"f  c #6E1018",
"g  c #741115",
"h  c #751519",
"j  c #783E1F",
"k  c #451A32",
"l  c #4F2127",
"z  c #44212E",
"x  c #5E2B2D",
"c  c #462230",
"v  c #4C2432",
"b  c #512634",
"n  c #5B2C37",
"m  c #52283A",
"M  c #5C2C39",
"N  c #663520",
"B  c #62332D",
"V  c #622E38",
"C  c #61303C",
"Z  c #7E3D33",
"A  c #362241",
"S  c #392443",
"D  c #3C2748",
"F  c #733741",
"G  c #7A3C43",
"H  c #7A787B",
"J  c #810612",
"K  c #870812",
"L  c #890C14",
"P  c #821013",
"I  c #80101A",
"U  c #9D151A",
"Y  c #9D191B",
"T  c #A4171B",
"R  c #A4191B",
"E  c #AA191B",
"W  c #B1171A",
"Q  c #B21B1B",
"!  c #B92921",
"~  c #B33221",
"^  c #E53A1F",
"/  c #DD1323",
"(  c #E11523",
")  c #E42F22",
"_  c #E43422",
"`  c #E63B21",
"'  c #E93C21",
"]  c #8D4935",
"[  c #86483C",
"{  c #8C4B3D",
"}  c #9A533A",
"|  c #A2573B",
" . c #A65A3C",
".. c #A85B3C",
"X. c #B6772C",
"o. c #AF603D",
"O. c #BB7C33",
"+. c #EC4621",
"@. c #F64524",
"#. c #FB4624",
"$. c #FC4A24",
"%. c #FE5022",
"&. c #CA6723",
"*. c #C26D44",
"=. c #CA7A45",
"-. c #D07343",
";. c #D47A43",
":. c #D97A45",
">. c #F88A07",
",. c #FD9605",
"<. c #FD9A06",
"1. c #FD9B0B",
"2. c #FA871E",
"3. c #FA8C1C",
"4. c #FE941A",
"5. c #FA9C1A",
"6. c #FEA515",
"7. c #FFAB17",
"8. c #FEA518",
"9. c #FFAB19",
"0. c #FFB416",
"q. c #FFB915",
"w. c #FFB01A",
"e. c #FFCF15",
"r. c #FFD016",
"t. c #FBDE15",
"y. c #FEDC1B",
"u. c #FFDE33",
"i. c #FED03C",
"p. c #FFEE28",
"a. c #FED745",
"s. c #FED945",
"d. c #FED948",
"f. c #FCEE45",
"g. c #FEED55",
"h. c #FFEC59",
"j. c #FDFD63",
"k. c #FCFD6A",
/* pixels */
"X X X X X X X X X X X X X X X X X X X X X X X X X X X X X X X X X X X X X X X X X X X X X X X X X X X X X X X X X X X X X X X X ",
"X X X X X X X X X X X X X X X X X X X X X X X X X X X X X X X X X X X X X X X X X X X X X X X X X X X X X X X X X X X X X X X X ",
"X X X X X X X X X X X X X X X X X X X X X X X X X X X X X X X X X X X X X X X X X X X X X X X X X X X X X X X X X X X X X X X X ",
"X X X X X X X X X X X X X X X X X X X X X X X X X X X X X X X X X X X X X X X X X X X X X X X X X X X X X X X X X X X X X X X X ",
"X X X X X X X X X X X X X X X X X X X X X X X X X H X H X X X X X X X X X X X X X X X X X X X X X X X X X X X X X X @ H X X X X ",
"X X X X X X X X X X X X X X X X X X X X X X X X X X X X X X X X X X X X X X X X X X X X X X X X X X X X X X X X X X X X X X X X ",
"X X X X X X X X X X X X X X H X X X X X X X X X X X X X X X X X X X X X X X X X X X X X X X X R R R : X X X X X X X X X X X X X ",
"X X X X X X X X X X X X X X X X X X X X X X X X X X X X X X X X X X X X X X X X X X X X X X R E R X X X X X X X X X X X X X X X ",
"X X X X X X X X X X X X X X X X X X X X X X X X X X X X X X X X X X X X X X X . . o X X X X R R E X X X X X X X X X X X X X X X ",
"X X X X X X X X X X X X X X X X X X X X X X X X X X X X X X X X X X X X X X X R T T X X X X R X X X X X X X X X X X X X X X X X ",
"X X X X X X X X X X X X X X X X X X X X X X X X X X X X X X X X X X X X T R R R p X H X E R R X X X X X X X X X X X X X X X X X ",
"X X X X X X X X X X X X X X X X X X X X X X X X X X X X X X X X + h P P @.R R X X X X a R R X X X X X X X X X X X X X X X X X X ",
"X X X X X X X X X X X X X X X X X X X X X X X X X X X X X X X   X R R U ` R R   X X   T R U X X X X X X X X X X X X X X X X X X ",
"X X X X X X X X X X X X X X X X X X X X X X X X X X X X X X X R T R ` ' R R R X X T i ` R Y X E R X X X X X X X X X X X X X X X ",
"X X X X X X X X X X X X X X X X X X X X X X X X X X X X X f R T U ` ` ` T X X X X R J ' R E R X X X X X X X X X X X X X H X X X ",
"X X X X X X H X X X X X X X X X X X X X X X X X X X X X X s R T R ` ' _ T   X X X T J ` R R R X X X X X X X X X X X X X X X X X ",
"X X X X X X X X X X X X X X X X X X X X X X X X X X X X X I T ^ _ 8.` ` R X   W T ` ` ` R T R X X X X X R Y X X X X X X X X X X ",
"X X X X X X X X X X X X X X X X X X H X X X X X X X X X R $.' ^ ) 8.` ` R X . Q T ` $.R R R X X X X X R R Y X X X X X X X X X X ",
"X X X X X X X X X X X X X X X X X X X X X X X X X X     R $.' ` +.9.' ` R X   Q T ' $.R R T X X X X X R R Y X X X X X X X X X X ",
"X X X X X X X X X X X X X X X X X X X X X X X X X X R T R $.' 9.0.` R R R X R +.` ' #.R X X X X X R E R X X X X X X X X X X X X ",
"X X X X X X X X X X X X X X X X X X X X X X X X X R R T ` y.7.7.0.' T T T T R q.8.T R T X X E T R E R R @ X X X X X X X X X X X ",
"X X X X X X X X X X X X X X X X X X X X X X X X X R T T ' u.9.7.q.' R R R Y R q.7.T R R + o R U R R R R X X X X X X X X X X X X ",
"X X X X X X X X X X X   X X X X X X X X X X X R R R ` ` ` j.s.9.q.' ' ^ ' ' 9.7.7.R R T T Y T ` ` R T R X X X X X X X X X X X X ",
"  X X X X X X X X X X X X X   X X X X X R R T T T ` 6.9.d.a.a.' ` ` 9.0.7.9.7.' ^ R R R ` ` ` E R R h X H X X X X X X X X X X X ",
"X X   X X X X X X X X X   X   X   X . . T U T R Q ' 0.9.d.a.i.` _ ' 9.7.0.6.6.` ' T R R ^ ' ` R R R h X X X X X X X X X X X X X ",
"      X X X X X X X X X X   X       E T T L ` ' ' 9.a.s.d.1.9.` _ 9.9.9.d.s.` ' ` R K ^ ^ ` R R R X X X X X X X X X X X X X X X ",
"            X X   X X X X   X     T _ ` 7.>.a.d.d.d.d.s.a.s.s.7.9.9.d.s.s.s.' ' +.^ ` ' ' ` R   X X   X X X X X X X X X X X X X ",
"          X   X X X   X     X     L / / p.f.j.j.j.k.j.j.j.g.s.<.,.,.s.s.h.h.^ / ( / ( ` $.@.R   X X o o X X X X X X X X X X X X ",
"              X               T T ` 6.9.3 3 3 , 3 3 4 , 4 j.s.a.s.s.s.s.w.9.' 0.9.9.e.' R R T X X X X T X X X X X X X X X X X X ",
"              X             T ` ' 8.4 > , @ .. ...M M n 4 , 3 4 # a.s.s.9.9.9.7.7.' ' ^ T R X   X R R R X X X X X X X X X X X X ",
"                          O R ! ~ &.7 7 l *  .[ { M z v 4 0 5 5 < O.O.X.9.9.9.9.8.` #.! R R   u f E g X X X X X X X X X X X X X ",
"                            R 3 3 3 m M .... .M M M 3 3 > D t t A 3 3 2 d.d.d.8.8.' #.R T Y   W T R u X X X X X X X X X X X X X ",
"                        4 4 3 3 > M M n M M M M M M 3 3 t t S M M r 3 5 3 s.a._ ' ` #.T R R R R R R f   X X X X X X X X X X X X ",
"                  H     4 3 3 Z ] 3 3 3 > = M M M M b b 3 C m M M m e e 3 d.a.` ' U T T @.@.$.R R       X X     X X X           ",
"                        3 4 3 ....3 > 3 3 # M M M M M M 3 G M M M M t y 3 a.a.) ' R T T ` ` ` R R       X           X X X       ",
"                    3 3 3 #  .> 3 3 3 3 3 3 3 M n M M M M = > 3 2 M 3 3 2 a.a.6.7.` ' ` ' ` Y T R     X           X X X         ",
"                    3 3 b 7 ..> 3 3 3 3 3 3 3 }  .M M M V c v v m 4 > 3 4 N j 6.7.8.5.5.` ` R     X   X       X           X     ",
"                    4 3 M k  .3 3 3 3 3 3 3 3  ...M M M M M M M C 3 3 3 3 3 4 7.w.9.9.9.' ` R                                   ",
"                    5 3 M k .. ...> 3 > 3 @ ......M M M M M M n V M y t 3 3 4 7.w.s.g.9.Y T R                                   ",
"                    5 > M v M  . .} } } } B ..n M M M M 3 , 3 , > M y A 4 4 4 s.s.9.y.+.R R                                     ",
"                    4 3 C M M  . .........|  .n M M M M 3 3 5 , > M t t 5 4 3 s.s.9.t.' R R                                     ",
"                    4 , n V n C M n | .. .=.M M M M , , 3 3 3 3 2 M M m t 4 4 s.a.7.y.T Y R                   H                 ",
"                    5 3 n M n n n M *.;.:.=.M M M M 3 3 , 3 , 4 1 9 M M r 4 2 9.9.+.%.R                                         ",
"                    4 > n M M M M M M M M M M M M V 3 3 3 3 3 ; =  .M M A 4 3 9.9.' $.R                                         ",
"                    5 4 A w M 3 3 > n M M M M n M M M M 3 3 >  .....M n 4 3 2 6.9.` $.R X X                                     ",
"                    4 > 3 = M 3 3 3 > > M M M M M M M M 8 Z x ..o.m y t 4 r.r.^ ' U U                                           ",
"                    4 > 3 & M 3 > 3 3 3 M M M M M M n M M -.....o.M y t 3 3.4.` ` T U                                           ",
"                        3 % t n M 4 3 3 3 & M M M n M M M n n M V t > 3 3 2.' T T T R                                           ",
"                        3 > > q q F 3 > 3 % w n M M - 2 3 S w w w y , , $.+.R R R                                               ",
"                        3 3 3 r t n > 3 3 ; t n M M 3 3 4 D t t y y , , ` ' Y R Y                                               ",
"                          o 3 3 > t n n t t t t t 3 3 3 , Z n t y > E ^ R R R                                                   ",
"                          X + 3 > t c z t t t t t 5 5 6 5 y z 6 6 d R R R T                                                     ",
"                              3 3 3 3 3 t y r t t t t t t ; 3 3 2 R R R R R X                               H   H               ",
"                                    5 4 3 3 3 3 3 3 3 3 3 3 3 T R R T                                                           ",
"                                    o # o o # # o # o o # o $                                                                   ",
"                                                                                                                                ",
"                                                                                                                                ",
"                            H                                                                                                   ",
"                          H   H                                                                                                 ",
"                            H                                                                                                   ",
"                                                                                                                                ",
"                                                                                                                                ",
"                                                                                                                                ",
"                                                                                                                                "
};
