/* XPM */
static char *tuile_player_right_64x641747491007[] = {
/* columns rows colors chars-per-pixel */
"64 64 201 2 ",
"   c #000000",
".  c #0A0506",
"X  c #070902",
"o  c #0A0C03",
"O  c #090608",
"+  c #0B0B0B",
"@  c #160809",
"#  c #150A0A",
"$  c #0D1006",
"%  c #141A03",
"&  c #14160D",
"*  c #141413",
"=  c #1A1613",
"-  c #1C1E15",
";  c #1B1A1A",
":  c #240C0D",
">  c #2A0E0D",
",  c #250F10",
"<  c #24191A",
"1  c #341311",
"2  c #391311",
"3  c #361818",
"4  c #1D2400",
"5  c #1C220B",
"6  c #1E2215",
"7  c #2B350E",
"8  c #252917",
"9  c #2D3614",
"0  c #353F10",
"q  c #2A2424",
"w  c #37292A",
"e  c #36312E",
"r  c #363733",
"t  c #3D3C3A",
"y  c #421511",
"u  c #481A1B",
"i  c #551C1B",
"p  c #591B1A",
"a  c #621E1D",
"s  c #6A1E1E",
"d  c #711E1D",
"f  c #7B1E1C",
"g  c #5E201D",
"h  c #64221E",
"j  c #6C221D",
"k  c #73221D",
"l  c #7C231C",
"z  c #4E1C27",
"x  c #561D23",
"c  c #651C21",
"v  c #482726",
"b  c #552223",
"n  c #5D2426",
"m  c #522927",
"M  c #52302B",
"N  c #483B3A",
"B  c #58383A",
"V  c #642323",
"C  c #6D2423",
"Z  c #6B2A24",
"A  c #6D2529",
"S  c #64292A",
"D  c #67282A",
"F  c #732423",
"G  c #7B2522",
"H  c #722827",
"J  c #7C2825",
"K  c #79292A",
"L  c #66332B",
"P  c #76352B",
"I  c #743933",
"U  c #3E491A",
"Y  c #3D442B",
"T  c #47502E",
"R  c #414635",
"E  c #554239",
"W  c #4E5931",
"Q  c #515A37",
"!  c #664133",
"~  c #5E6C2E",
"^  c #434441",
"/  c #4C4A49",
"(  c #574744",
")  c #4E5344",
"_  c #555B49",
"`  c #5E5A56",
"'  c #5B5C56",
"]  c #694B48",
"[  c #614D50",
"{  c #685A59",
"}  c #5D6740",
"|  c #5E6451",
" . c #64675B",
".. c #707956",
"X. c #6B6D63",
"o. c #696B67",
"O. c #71756B",
"+. c #811F1C",
"@. c #85271E",
"#. c #8A241C",
"$. c #92261B",
"%. c #98271E",
"&. c #A0291E",
"*. c #822524",
"=. c #8A2624",
"-. c #832C23",
";. c #812C29",
":. c #952D23",
">. c #932B26",
",. c #8E3126",
"<. c #82322C",
"1. c #883529",
"2. c #88312E",
"3. c #973429",
"4. c #9C392A",
"5. c #833531",
"6. c #933A32",
"7. c #A62A24",
"8. c #A82A27",
"9. c #AA2D28",
"0. c #A53325",
"q. c #A83724",
"w. c #A33429",
"e. c #A43A2E",
"r. c #AD3B2D",
"t. c #B53223",
"y. c #B93A27",
"u. c #A73B30",
"i. c #CE3A29",
"p. c #D43B2A",
"a. c #924531",
"s. c #A6452F",
"d. c #B9422E",
"f. c #AB4737",
"g. c #B44333",
"h. c #B94937",
"j. c #C0462D",
"k. c #D84C2D",
"l. c #C34632",
"z. c #CF4B31",
"x. c #C34E3C",
"c. c #D94A32",
"v. c #C3523E",
"b. c #CF543D",
"n. c #D95037",
"m. c #E35D3B",
"M. c #954C49",
"N. c #815250",
"B. c #846459",
"V. c #A1675C",
"C. c #986E61",
"Z. c #93746C",
"A. c #98716C",
"S. c #8C7C72",
"D. c #927F73",
"F. c #AD6C67",
"G. c #AB7C72",
"H. c #C05442",
"J. c #D36146",
"K. c #CD6751",
"L. c #E66448",
"P. c #E2725D",
"I. c #70851E",
"U. c #7C8A49",
"Y. c #7A816F",
"T. c #E0873C",
"R. c #E2B03D",
"E. c #8C9D56",
"W. c #858F69",
"Q. c #919E6B",
"!. c #86857D",
"~. c #918F72",
"^. c #B38378",
"/. c #A6B679",
"(. c #EB9C46",
"). c #ECA244",
"_. c #FDBD57",
"`. c #BCD85F",
"'. c #B5C97C",
"]. c #FBC456",
"[. c #8B8C85",
"{. c #92998C",
"}. c #A18780",
"|. c #A0928E",
" X c #B4968D",
".X c #ADB88F",
"XX c #B0BD8F",
"oX c #A2A3A0",
"OX c #B5AFA8",
"+X c #CE938B",
"@X c #E1BAAD",
"#X c #FCBDAF",
"$X c #B3C385",
"%X c #BEC9A3",
"&X c #FEE286",
"*X c #C7D3A9",
"=X c #CBD3BB",
"-X c #FACDBF",
";X c #FCCBC0",
":X c #F0D1C8",
">X c #FEDDD1",
/* pixels */
"                                                                                                                                ",
"                                                                                                                                ",
"                                                                                                                                ",
"                                                            ^ Q                                                                 ",
"        4 8                                                 _ /.X                                                               ",
"        I.=X;                                               X 5                                               + ;               ",
"        4 9                                                                                                    ..X;             ",
"                                                                                                              ) W.*             ",
"                                                                                                              X +               ",
"                                                                                                                                ",
"                                  o 7 +                                                           X ^ ^ X                       ",
"                                  X.$XY                                                           * oX'.-                       ",
"                                  = 7 o                                                           O Q ~ X                       ",
"                                                                                                                                ",
"                                                                    X                                                           ",
"                                                                  X                                                             ",
"                                                                                                                                ",
"                                                                            r O.;                                               ",
"                                              > k  XN.                      o.'.Q                                               ",
"                      X                     J p.p.0.q.i                     + 8 X                                               ",
"                                            3 x x *.*.>.2                                                                       ",
"                                6 X         # @.c $.%.#.&.# X                                                                   ",
"                              ; =XU         . h x c p i u s q e e ( O                                                           ",
"                                U %         . K >.4.w.6.+XA.2.Y.' ~.O               o                                           ",
"                                      y p # : 8.,.t.Z k.Z.>XI S _ S.O           X t U.X                                         ",
"                                    l C F j 2 9.s.Z Z 3.4.@XOXB ( N ' t         $ [.`.6                                         ",
"                                  . V t.t.$.i 9.L.1.j.s.L.C.#X{ N z ] B : +       r } O                                   X     ",
"            X                       y :.k V V c 1.5.<.5.2.c M.B 8.c.c.L.m.:.#                                                   ",
"                                    . P J.a.H J l l f f f +.=.>.z i Z C F Z ,.l y                         + ' _ +               ",
"                                        t ' / P 3.:.4.3.e.r.5.;.r.b.x.h.h.h.g.d.r.F < 2 O                 * .X/.*               ",
"                                        [.[.` o.Z H P 5.;.;.n.L.6.S u v g m M m v v z.l.j.,.1               8 ;                 ",
"                                        ; ^ e r L K.P.L.K 3.f.x O.OXS.(._.].].].&X! (  X X^.F.                                  ",
"                                        N ` t t e 6.h.f.F y.J.-./ {.B.T.(.).).).R.v ! G.^.V.M.                                  ",
"                                      X [.[. .X.2.w.f.h.6.H q.L.b.<.A n V S S n z M g.z.w.h #                                   ",
"                                      > q ^ N 3.@.l l l =.r.e.K J r.h.g.g.s.s.4.w.k , .                                         ",
"          X E...                    . S f.v.P H h h c c c d l d V C H k C h Z i #                                               ",
"            0 8                     a t.$.k p =.x.x.H.H.v.I F.[ =.l.z.J.J.=.O                                                   ",
"                                  O h >.t.#.u 9.m.b q.=.k.S.;X] B w ` / X                                                       ",
"                                    p $.p h : 7.6.-.n q.a.;X|.H ^ [ e ;             X                                           ",
"                                      # 2 X : 8.q.y.,.k.}.:XJ E ) D..                                                           ",
"                                            X S A A K S F.{ I !. .|..                                                           ",
"                                            . d p l k d s p * = = ;                                 X 4                         ",
"                                            , l c %.&.%.%.                                          U XX+                       ",
"                                            u F c =.*.G :         X                                 & O.+                       ",
"                                            n p.i.:.:.2                                                                         ",
"                  X X                           2 Z./                                                                           ",
"                                                                                                                                ",
"                                                                            + 5                                                 ",
"                                        X T +                                .%X8       Y R                                     ",
"                                        T *X8                               = _ X       Q.U.                                    ",
"                                        o 7 X                                           & O                                     ",
"                                                                                                                                ",
"                                                                                                                                ",
"                                                                                                                                ",
"                                                                                                                                ",
"                                                                                                                                ",
"                                    W W.+                                                                                       ",
"                                    W W.X                                                                                       ",
"                                                                                                                                ",
"                                                                                                                                ",
"                                                                                        $ | &                                   ",
"                                                                    X                   7 XX7                                   ",
"                                                                                        X 5 X                                   ",
"                                                                                                                                "
};
