/* XPM */
static char *tuile_wall_64x641747491007[] = {
/* columns rows colors chars-per-pixel */
"64 64 118 2 ",
"   c #000000",
".  c #070903",
"X  c #0A0C03",
"o  c #040708",
"O  c #06090A",
"+  c #0A0C0C",
"@  c #0D1003",
"#  c #101400",
"$  c #14160D",
"%  c #0D1414",
"&  c #0E1618",
"*  c #141414",
"=  c #1C1E15",
"-  c #121A1B",
";  c #1A1A1A",
":  c #1D2400",
">  c #1C220B",
",  c #1E2310",
"<  c #1F211A",
"1  c #2B350E",
"2  c #212513",
"3  c #242912",
"4  c #21241D",
"5  c #292E1B",
"6  c #2D3614",
"7  c #353F10",
"8  c #151F21",
"9  c #152021",
"0  c #1B2728",
"q  c #1D2C2D",
"w  c #1F3033",
"e  c #233335",
"r  c #263739",
"t  c #2A383A",
"y  c #323232",
"u  c #363833",
"i  c #3E491A",
"p  c #3C4523",
"a  c #3E442F",
"s  c #47502E",
"d  c #404730",
"f  c #434A30",
"g  c #41423F",
"h  c #4E5931",
"j  c #525B34",
"k  c #50583A",
"l  c #5E6C2E",
"z  c #2D3E41",
"x  c #324345",
"c  c #35464A",
"v  c #3A474B",
"b  c #36484B",
"n  c #394A4D",
"m  c #3C4E51",
"M  c #3F5154",
"N  c #434441",
"B  c #4E5442",
"V  c #575E45",
"C  c #575D4A",
"Z  c #415256",
"A  c #455559",
"S  c #48575C",
"D  c #47595D",
"F  c #495A5E",
"G  c #5B5D57",
"H  c #5E6451",
"J  c #636853",
"K  c #707956",
"L  c #4C5D62",
"P  c #4E6065",
"I  c #516267",
"U  c #54656B",
"Y  c #596A6F",
"T  c #5B6D73",
"R  c #5E7077",
"E  c #5E7178",
"W  c #666763",
"Q  c #6A6E62",
"!  c #71746C",
"~  c #63757B",
"^  c #66797F",
"/  c #70851E",
"(  c #7A8844",
")  c #7D8C4D",
"_  c #8C9D56",
"`  c #858F69",
"'  c #899466",
"]  c #919E6B",
"[  c #A8B972",
"{  c #A5B47D",
"}  c #BCD85F",
"|  c #B5C97C",
" . c #C2D97E",
".. c #657780",
"X. c #667A81",
"o. c #6A7D84",
"O. c #6C7F88",
"+. c #6D8087",
"@. c #6E818A",
"#. c #71848D",
"$. c #748791",
"%. c #768993",
"&. c #798C95",
"*. c #7B8E9A",
"=. c #7E929D",
"-. c #8A8E81",
";. c #ADB88F",
":. c #B0BD8F",
">. c #8295A2",
",. c #8498A7",
"<. c #879BA9",
"1. c #899CAB",
"2. c #A2A3A0",
"3. c #B3C483",
"4. c #BEC9A3",
"5. c #C7D3A9",
"6. c #CBD4B7",
"7. c #CBD1BF",
/* pixels */
"                                                                                                                                ",
"                                                                                                                                ",
"                                                                                                                                ",
"                                                            g k                                                                 ",
"        : 5                                                 V { .                                                               ",
"        / 7.;                                               . >                                               O ;               ",
"        : 5                                                                                                   Q ;.;             ",
"                                                                                                              B ' *             ",
"                                                                                                              o O               ",
"                                                                                                                                ",
"                                  X 1 X                                                           o N N o                       ",
"                                  Q 3.d                                                           * 2.| =                       ",
"                                  * 6 X                                                           o k l o                       ",
"                                                                                                                                ",
"                                                                  .                                                             ",
"                                                                  .                                                             ",
"                                                                                                                                ",
"                                                                            y ! ;                                               ",
"                                                                            W  .j                                               ",
"                      .                                                     O 4 X                                               ",
"                                                                                                                                ",
"                                , .                                                                                             ",
"                              ; 6.i                                                                                             ",
"                                p #                       O % 8 t z x e &           X                                           ",
"                                                    O 9 x M L A S A A L Z &     . u ( O                                         ",
"                                                  + c U L n c L I #.%.E L Z 9   + -.} <                                         ",
"                                                + z L m n M Z T *.>.*.&.~ L A q   u l O                                   o     ",
"            .                                 o t m ~ X.T T O.>.,.>.Y I T X.F F -   o                                           ",
"                                              0 v U O.O.O.%.>.*.1.L b c Z R O.S e                         O G H O               ",
"                                            o x L ~ $.#.%.*.>.>.1.F x x Z ~ %.I b                         * ;.[ *   .           ",
"                                            w b Y o...O.*.>.<.<.1.$.S F Y >.#.Y b                           = =                 ",
"                                            e Z T X...#.*.Y m U 1.=.>.>.$.>.#.~ Z O                                             ",
"                                            e P R o.@.%.o.b b x @.=.$.*.#.#.O.O.U -                                             ",
"                                            w F U o.#.@.%.A m D *.&.>.>.&...X.Z x O                                             ",
"            .                               + b F X.@.+.%.&.#.=.%.*.m P >.#.I z +                                               ",
"          . _ K                               e A E %.%.#.&.@.&.&.X.z Z %.#.m -                                                 ",
"            7 3                               % b I #.#.@.%.o.@.&.%.T o.#.~ a %                                                 ",
"                                                e I A Z R ^ @.&.#.&.@.E Y A e                                                   ",
"                                              . & c b m D E R ^ ~ T U U m r o       X                                           ",
"                                              X @ + O + b L R R U L m z q O                                                     ",
"                                            . .         & 0 z c b z 0 +                                                         ",
"                                                              o O                                   . :                         ",
"                                                                                                    i :.+                       ",
"                                                                                                    $ ! +                       ",
"                                                                                                                                ",
"                  X .                                                                                                           ",
"                                                                                                                                ",
"                                                                            X >                                                 ",
"                                        X f X                               Q 4.2       a a                                     ",
"                                        s 5.3                               $ C X     . ] )                                     ",
"                                        @ 1 .                                           $ o                                     ",
"                                                                                                                                ",
"                                                                                                                                ",
"                                                                                                                                ",
"                                                                                                                                ",
"                                                                                                                                ",
"                                    j ` o                                                                                       ",
"                                    h ' O                                                                                       ",
"                                                                                                                                ",
"                                                                                                                                ",
"                                                                                        X J $                                   ",
"                                                                    .                   6 :.1                                   ",
"                                                                                        . > .                                   ",
"                                                                                                                                "
};
