/* XPM */
static char *_7fad8bde3db4bf6f396b0aff8d3d0b7w4y4Y1KWUJNF8ptp[] = {
/* columns rows colors chars-per-pixel */
"64 64 20 1 ",
"  c black",
". c #232323",
"X c #353535",
"o c gray26",
"O c #505050",
"+ c #4AA500",
"@ c #64DF00",
"# c #8F8E03",
"$ c #A8A603",
"% c #84DF3A",
"& c #CBC804",
"* c #A4FF5A",
"= c #00A0AF",
"- c #00C3D5",
"; c #6CCCD5",
": c gray59",
"> c gray65",
", c #A3D2D5",
"< c #D5D5D5",
"1 c white",
/* pixels */
"                                                                ",
"                                                                ",
"                                                                ",
"                                                                ",
"                                                                ",
"                                     <<                  @      ",
"                                 <<O><<<                %1>.    ",
"                            ><<O><<<O><<                 1      ",
"                        XXX ><<<O><<O><<<                       ",
"                    XXXXoooo ><<O><<<O><<                       ",
"                XXXXooXooooo ><<<O><<O><<<                      ",
"             XXXooooooXoooooo ><<O><<<                          ",
"           XoooooooooooXooooo ><<<     ooooXXXX                 ",
"           XoooooooooooXoooooo     oooXooooooooX                ",
"            XooooooXXXXXooooooooooXoooXooooooooX                ",
"            XooXXXX     XoooooooooXooooXooooooooX               ",
"            XXX    ...  XoooooooooXooooXooooooooX               ",
"               . ...X... XoooooooooXoooXooooooooXX              ",
"              .. ..XXX.. XoooooooooXooooXooooooooX              ",
"             XX.. .XXXX. XoooooooooXooooXooooooooXX             ",
"             oXX. XoXXX.. XoooooooooXooooXoooooooXX             ",
"            ooXX. XooXX.. XoooooooooXooooXooooooXX              ",
"            oooX.. ooXX..         ooXooooXooooXXX >             ",
"            ooooX. ooXX  XXXXXXXXX ooXooooXooXXX ::>>           ",
"               oX.. oXX XoooooooooX oXooooXoXXX X  ::>          ",
"                 X.  XX XoooooooooX XXXXXXXXXX ooXX  :          ",
"                        XoooooooooX       XXX oooXXXX           ",
"        ===   :::: XXXX XoooooooooX XXXXXX   oooX#&XoXX         ",
"      ==---=::>>>> XXooo XXXXXXXXX ooooXXXX XoooX&$#XoX         ",
"    ==--;;;-:::::: Xooooo         ooooX$&XoX oooX$#$XoX         ",
"  ==--;;,,,;:>>>>> XooooooooooooooooooX&$#XoX oooX$&$XX         ",
"==--;,,,,,,,:::::: XoooooooooooooooooooX#$XoX oooX&$&XX         ",
"==--;,,,,,,,:::::: XoooooooooooooooooooX#$XoX oooX&$&XX         ",
"  ==--;;,,,;:>>>>> XooooooooooooooooooX&$#XoX oooX$&$XX         ",
"    ==--;;;-:::::: Xooooo         ooooX$&XoX oooX$#$XoX         ",
"      ==---=::>>>> XXooo XXXXXXXXX ooooXXXX XoooX&$#XoX         ",
"        ===   :::: XXXX XoooooooooX XXXXXX   oooX#&XoXX         ",
"                        XoooooooooX       XXX oooXXXX           ",
"                 X.  XX XoooooooooX XXXXXXXXXX ooXX  :          ",
"               oX.. oXX XoooooooooX oXooooXoXXX X  ::>          ",
"            ooooX. ooXX  XXXXXXXXX ooXooooXooXXX ::>>           ",
"            oooX.. ooXX..         ooXooooXooooXXX >             ",
"            ooXX. XooXX.. XoooooooooXooooXooooooXX              ",
"             oXX. XoXXX.. XoooooooooXooooXoooooooXX             ",
"             XX.. .XXXX. XoooooooooXooooXooooooooXX             ",
"              .. ..XXX.. XoooooooooXooooXooooooooX              ",
"               . ...X... XoooooooooXoooXooooooooXX              ",
"            XXX    ...  XoooooooooXooooXooooooooX               ",
"            XooXXXX     XoooooooooXooooXooooooooX               ",
"            XooooooXXXXXooooooooooXoooXooooooooX                ",
"           XoooooooooooXoooooo     oooXooooooooX                ",
"           XoooooooooooXooooo ><<<     ooooXXXX                 ",
"             XXXooooooXoooooo ><<O><<<                          ",
"                XXXXooXooooo ><<<O><<O><<<          +           ",
"                    XXXXoooo ><<O><<<O><<          %*>.         ",
"                        XXX ><<<O><<O><<<           1           ",
"                            ><<O><<<O><<                        ",
"                                 <<O><<<                        ",
"                                     <<                         ",
"                                                                ",
"                                                                ",
"                                                                ",
"                                                                ",
"                                                                "
};
