/* XPM */
static char *tuile_player_up_64x641747491007[] = {
/* columns rows colors chars-per-pixel */
"64 64 198 2 ",
"   c #000000",
".  c #0A0506",
"X  c #070902",
"o  c #0A0C03",
"O  c #090608",
"+  c #0B0B0B",
"@  c #120708",
"#  c #17090A",
"$  c #0D1006",
"%  c #141A03",
"&  c #14160D",
"*  c #141413",
"=  c #1A1513",
"-  c #1C1E15",
";  c #1B1A1A",
":  c #240C0D",
">  c #2A0E0D",
",  c #34120E",
"<  c #250F10",
"1  c #24191A",
"2  c #341311",
"3  c #391311",
"4  c #361818",
"5  c #1D2400",
"6  c #1C220B",
"7  c #1E2215",
"8  c #2B350E",
"9  c #252917",
"0  c #2D3614",
"q  c #353F10",
"w  c #37292A",
"e  c #36312E",
"r  c #363733",
"t  c #3D3C3A",
"y  c #421511",
"u  c #481A1B",
"i  c #551C1B",
"p  c #591B1A",
"a  c #621E1D",
"s  c #6A1E1E",
"d  c #711E1D",
"f  c #7B1F1C",
"g  c #5E201D",
"h  c #64221E",
"j  c #6C221D",
"k  c #73221C",
"l  c #7C231C",
"z  c #4E1C27",
"x  c #561D23",
"c  c #651C21",
"v  c #482726",
"b  c #552223",
"n  c #5D2426",
"m  c #522927",
"M  c #52302B",
"N  c #483B3A",
"B  c #58383A",
"V  c #642323",
"C  c #6D2423",
"Z  c #6B2A24",
"A  c #6D2529",
"S  c #63292A",
"D  c #67282A",
"F  c #732423",
"G  c #7B2522",
"H  c #722827",
"J  c #79292A",
"K  c #66332B",
"L  c #76352B",
"P  c #743933",
"I  c #3E491A",
"U  c #3D442B",
"Y  c #47502E",
"T  c #414635",
"R  c #554239",
"E  c #4E5931",
"W  c #515A37",
"Q  c #664133",
"!  c #5E6C2E",
"~  c #444441",
"^  c #4C4A49",
"/  c #574744",
"(  c #4E5344",
")  c #555B49",
"_  c #5B5C56",
"`  c #694B48",
"'  c #60534F",
"]  c #614D50",
"[  c #685A59",
"{  c #5D6740",
"}  c #5E6451",
"|  c #64675B",
" . c #707956",
".. c #6B6D63",
"X. c #696B67",
"o. c #71756B",
"O. c #811F1C",
"+. c #85271E",
"@. c #8A241C",
"#. c #92261B",
"$. c #98271E",
"%. c #822524",
"&. c #8A2624",
"*. c #8C2B21",
"=. c #812C29",
"-. c #952D23",
";. c #932B26",
":. c #982B22",
">. c #8E3126",
",. c #82322C",
"<. c #883529",
"1. c #88312E",
"2. c #973429",
"3. c #9C392A",
"4. c #833531",
"5. c #933A32",
"6. c #A62A24",
"7. c #A82A27",
"8. c #AA2D28",
"9. c #A53325",
"0. c #A83724",
"q. c #A33429",
"w. c #A43A2E",
"e. c #AD3B2D",
"r. c #B53223",
"t. c #B93A27",
"y. c #A73B30",
"u. c #CE3A29",
"i. c #D43B2A",
"p. c #924531",
"a. c #A6452F",
"s. c #B9422E",
"d. c #AB4737",
"f. c #B44333",
"g. c #B94937",
"h. c #D84C2D",
"j. c #C34632",
"k. c #CF4B31",
"l. c #C34E3C",
"z. c #D94A32",
"x. c #C3523E",
"c. c #CF543D",
"v. c #D95037",
"b. c #E35D3B",
"n. c #EE643C",
"m. c #954C49",
"M. c #815250",
"N. c #846459",
"B. c #A1675C",
"V. c #986E61",
"C. c #93746C",
"Z. c #98716C",
"A. c #8C7C72",
"S. c #927F73",
"D. c #AD6C67",
"F. c #AB7C72",
"G. c #C05442",
"H. c #D95E42",
"J. c #D36146",
"K. c #CD6751",
"L. c #E66448",
"P. c #E2725D",
"I. c #70851E",
"U. c #7C8A49",
"Y. c #E0873C",
"T. c #E2B03D",
"R. c #8C9D56",
"E. c #858F69",
"W. c #919E6B",
"Q. c #86857D",
"!. c #918F72",
"~. c #B38378",
"^. c #A6B679",
"/. c #EB9C46",
"(. c #ECA244",
"). c #FDBD57",
"_. c #BCD85F",
"`. c #B5C97C",
"'. c #FBC456",
"]. c #8B8C85",
"[. c #92998C",
"{. c #A18780",
"}. c #A0928E",
"|. c #B4968D",
" X c #ADB88F",
".X c #B0BD8F",
"XX c #A2A3A0",
"oX c #B5AFA8",
"OX c #CE938B",
"+X c #E1BAAD",
"@X c #FCBDAF",
"#X c #B3C385",
"$X c #BEC9A3",
"%X c #C7D3A9",
"&X c #CBD3BB",
"*X c #FACDBF",
"=X c #F0D1C8",
"-X c #FEDDD1",
/* pixels */
"                                                                                                                                ",
"                                                                                                                                ",
"                                                                                                                                ",
"                                                            ~ W                                                                 ",
"        5 9                                                 ) ^.X                                                               ",
"        I.&X;                                               X 6                                               + ;               ",
"        5 0                                                                                                   |  X;             ",
"                                                                                                              ( E.*             ",
"                                                                                                              X +               ",
"                                                                                                                                ",
"                                  o 8 o                                                           X ~ ~ X                       ",
"                                  ..#XT                                                           * XX`.-                       ",
"                                  * 8 o                                                           O W ! X                       ",
"                                                                                                                                ",
"                                                                    X                                                           ",
"                                                                  X                                                             ",
"                                                            .                                                                   ",
"                                                            3 D.m.@         r o.;                                               ",
"                                                            >.~.B.j         X.`.W                                               ",
"                      X                                   O s.|.~.q.        + 9 o                                               ",
"                                                          3 j.|.F.k..                                                           ",
"                                6 X                       9 k./ R s.<                                                           ",
"                              ; &XI                     O F v Q M m k                                                           ",
"                                U %                     y e.t '.T.v q.@             o                                           ",
"                                                        l s.m '.(.n 3.g         X t U.O                                         ",
"                                                      # *.g.M '.(.n w.j O       $ ]._.7                                         ",
"                                                    + :.Z g.v ).(.D a.V *.        r { O                                   X     ",
"            X                                       : H.j g.b )./.D f.C J.O                                                     ",
"                                                  t B b.A j.v /.Y.V f.F J.^ ;                             + _ ) +               ",
"                                            O O O ' ` z.Z l.z A.N.A g.H k._ e X X                         *  X^.*               ",
"                                            / !.S.N v z.z c.D oX[.,.e.A j.w ] A.}.1                         7 ;                 ",
"                                            e _ ) / N 7.z e.2.o.^ c.J c &.B ~ ( | =                                             ",
"                                            e o.B D [ B 2.G L.b ,.L.J C ] / A R ].*                                             ",
"                                            w =.P oX@Xm.&.1.H.d.J.9.y.f D.*X}.%.P =                                             ",
"                                          @ a Z.-X+XV.V O.e.=.3.t.J e.d P Z.*X=X` p                                             ",
"          X R. .                        3 6.u OXC.3.b.1.O.y.%.J F 5.&.s x.v.p.{.D.a :.:                                         ",
"            q 9                       i &.@.p 5.z.>.a.4.f 2.4.J.d.g.l p x.*.0.h.D d :.G 3                                       ",
"                                    M.9.%.:.a q.H H s.4.f q.J P.g.d.l h x.0.b >.J k $.&.-.^                                     ",
"                                    |.8.%.#.h 2.t.Z <.4.f ;.A K.5.3.l h g.b =.t.A l $.&.;.C.                                    ",
"                                    k i.p c x >.>.d.n.4.G 2.K K v 1.+.h x.n.5.0.A p s c u.3                                     ",
"                                    > i.z +.h =.7.7.8.h %.,.X.r U X.1.c %.8.6.7.D j +.J i.                                      ",
"                                      G 4 # . . : , i V Z ( _ e t X.B L g i : :   . < 4 g           X 5                         ",
"                                      .         # d #.V p._ ].~ _ ].~ G.d @.h X     .               I .X+                       ",
"                                                p F r.j H.t Q.; N Q.w d.-.r.p 3                     & o.+                       ",
"                                                y C r.:.L           2 S r.;.#.#                                                 ",
"                  X X                             l V u .             . h h p                                                   ",
"                                                    X                     X                                                     ",
"                                                                            O 6                                                 ",
"                                        o Y o                               | $X9       U T                                     ",
"                                        Y %X9                               = ) X       W.U.                                    ",
"                                        + 8 X                                           & O                                     ",
"                                                                                                                                ",
"                                                                                                                                ",
"                                                                                                                                ",
"                                                                                                                                ",
"                                                                                                                                ",
"                                    E E.o                                                                                       ",
"                                    E E.o                                                                                       ",
"                                                                                                                                ",
"                                                                                                                                ",
"                                                                                        $ } &                                   ",
"                                                                    X                   8 .X8                                   ",
"                                                                                        X 6 X                                   ",
"                                                                                                                                "
};
