/* XPM */
static char *tuile_floor_64x641747491008[] = {
/* columns rows colors chars-per-pixel */
"64 64 103 2 ",
"   c black",
".  c #030400",
"X  c #040500",
"o  c gray2",
"O  c #070707",
"+  c #070900",
"@  c #070806",
"#  c #090B00",
"$  c #090B01",
"%  c #0C0F00",
"&  c #090A05",
"*  c #0A0B06",
"=  c gray4",
"-  c #0B0B0B",
";  c #0D0E0B",
":  c #0C0C0C",
">  c #0F0F0E",
",  c #0C1000",
"<  c #0D1006",
"1  c #101400",
"2  c #131706",
"3  c #191F06",
"4  c #14170B",
"5  c #12140E",
"6  c #15170F",
"7  c #111111",
"8  c #151515",
"9  c #161614",
"0  c #1B1D14",
"q  c #1B1B19",
"w  c gray10",
"e  c #1B1B1B",
"r  c #1D2400",
"t  c #1B2109",
"y  c #1B210B",
"u  c #1E230E",
"i  c #1E2310",
"p  c #1F211A",
"a  c #20250E",
"s  c #29310E",
"d  c #2C350D",
"f  c #2E370F",
"g  c #212513",
"h  c #232910",
"j  c #242914",
"k  c #21241D",
"l  c #282D1B",
"z  c #2D3614",
"x  c #323232",
"c  c #363833",
"v  c #3A3D34",
"b  c #3E4919",
"n  c #3E491A",
"m  c #3C4523",
"M  c #3E442F",
"N  c #47502E",
"B  c #434A30",
"V  c #41423F",
"C  c #4E5931",
"Z  c #525B34",
"A  c #50583A",
"S  c #5E6C2E",
"D  c #414141",
"F  c #454741",
"G  c #4E5440",
"H  c #575E45",
"J  c #575D4A",
"K  c #5B5D57",
"L  c #5D6740",
"P  c #5E6451",
"I  c #636853",
"U  c #707956",
"Y  c #666763",
"T  c #696D60",
"R  c #6B6F63",
"E  c #71756A",
"W  c #71726D",
"Q  c #70851E",
"!  c #7A8844",
"~  c #7D8C4D",
"^  c #7A8263",
"/  c #8C9D56",
"(  c #858F69",
")  c #889563",
"_  c #899466",
"`  c #919E6B",
"'  c #92A363",
"]  c #A8B972",
"[  c #A5B47A",
"{  c #A5B47F",
"}  c #BCD85F",
"|  c #B5C97C",
" . c #C2D97E",
".. c #8A8E81",
"X. c #ADB88F",
"o. c #B0BD8F",
"O. c #A2A3A0",
"+. c #B3C483",
"@. c #B2C188",
"#. c #BEC9A3",
"$. c #C7D3A9",
"%. c #CBD4B7",
"&. c #CBD1BF",
/* pixels */
"                                                                                                                                ",
"                                                                                                                                ",
"                                                                                                                                ",
"                                                            V G                                                                 ",
"        r l                                                 H [ X                                                               ",
"      . Q &.q                                               + y                                               = q               ",
"        r l                                                                                                   R X.e             ",
"                                                                                                              G _ 7             ",
"                                                                                                              o -               ",
"                                                                                                                                ",
"                                  # f *                                                           o D F o                       ",
"                                  R +.B     .                                                     9 O.| 0                       ",
"                                  9 f #                             . .                           o A S o                       ",
"                                          .                                                                                     ",
"                                                                  X .                                                           ",
"                                                                  +                                                             ",
"                                                                                                                                ",
"                                                                            x W q                                               ",
"                      .                                                     Y  .Z                                               ",
"                      X                                                     - k *                                               ",
"                                                                                                                                ",
"                                i #                         .                                                                   ",
"                              q %.n                         .                                                                   ",
"                                m 1                                                 ,                                           ",
"                                                                                  v ! o                                         ",
"                                                                                > ..} k                                         ",
"            X                                                                     c L o                                         ",
"            X                                                                                                           o o     ",
"                                                                                                          - K P =               ",
"                                                                                                          9 X.] 9               ",
"                                                  s s                                                       0 p                 ",
"                                                X ) ) .               a z                                                       ",
"                                                  2 2                 ^ ' X                                                     ",
"                                                                      < t                                                       ",
"            .                                                                                                                   ",
"          X / U                                                                                                                 ",
"            n h                                                                                                                 ",
"                                                                                      .                                         ",
"                                            . X .                                   #                                           ",
"                                              % ,                                                                               ",
"                                            X X .                                                                               ",
"                                                                                                    + y                         ",
"                                                                  X .                               b X.>                       ",
"                                                                                                    4 E >                       ",
"                                                                                                                                ",
"                  # X                                                                                                           ",
"                      X                                                                                                         ",
"                                                                            * y .                                               ",
"                      .                 # B *                               R #.g       M M           .                         ",
"                                        N $.j                               6 J *     X ` ~ X                                   ",
"                                        < z #                                           5 o                                     ",
"                                                                                                                                ",
"                                                                                                                                ",
"                                                                                                                                ",
"                                                                                                                                ",
"                                      .                                                                                         ",
"                                    Z ( @                                                                                       ",
"                                    C ( @                                                                                       ",
"                                      .                                                                                         ",
"                                                                                                                                ",
"                                                                    X                   , I 5                                   ",
"                                                                    X                   z @.s                                   ",
"                                                                                        X u +                                   ",
"                                                                                                                                "
};
