/* XPM */
static char *tuile_collectible_64x641747491008[] = {
/* columns rows colors chars-per-pixel */
"64 64 135 2 ",
"   c black",
".  c #030300",
"X  c #030400",
"o  c #040500",
"O  c #040404",
"+  c gray2",
"@  c #070707",
"#  c #070900",
"$  c #070806",
"%  c #090B00",
"&  c #090B01",
"*  c #0C0F00",
"=  c #090A05",
"-  c #0B0D06",
";  c gray4",
":  c #0B0B0B",
">  c #0D0E0B",
",  c #0F0F0E",
"<  c #0C1000",
"1  c #0D1006",
"2  c #101400",
"3  c #131706",
"4  c #181D06",
"5  c #14170B",
"6  c #12140E",
"7  c #15170F",
"8  c #111111",
"9  c gray8",
"0  c #161614",
"q  c #1B1D14",
"w  c #1D1F15",
"e  c #1B1B19",
"r  c gray10",
"t  c #1B1B1B",
"y  c #1D2400",
"u  c #1B2109",
"i  c #1B210B",
"p  c #1E230E",
"a  c #1E2310",
"s  c #20250E",
"d  c #29310E",
"f  c #2C350D",
"g  c #2C350F",
"h  c #2E370F",
"j  c #212513",
"k  c #232910",
"l  c #242914",
"z  c #21241D",
"x  c #282D1B",
"c  c #2D3614",
"v  c #041B21",
"b  c #07252B",
"n  c #07252D",
"m  c #082A33",
"M  c #09303A",
"N  c #08313D",
"B  c #323232",
"V  c #363833",
"C  c #3A3D34",
"Z  c #3E4919",
"A  c #3E491A",
"S  c #3C4523",
"D  c #3E442F",
"F  c #47502E",
"G  c #434A30",
"H  c #41423F",
"J  c #4E5931",
"K  c #525B34",
"L  c #50583A",
"P  c #5E6C2E",
"I  c #105465",
"U  c #414141",
"Y  c #454741",
"T  c #4E5440",
"R  c #575E45",
"E  c #575D4A",
"W  c #5B5D57",
"Q  c #5D6740",
"!  c #5E6451",
"~  c #636853",
"^  c #707956",
"/  c #666763",
"(  c #696D60",
")  c #6B6F63",
"_  c #71756A",
"`  c #71726D",
"'  c #70851E",
"]  c #7A8844",
"[  c #7D8C4D",
"{  c #7A8263",
"}  c #8C9D56",
"|  c #858F69",
" . c #889563",
".. c #899466",
"X. c #919E6B",
"o. c #92A363",
"O. c #A8B972",
"+. c #A5B47A",
"@. c #A5B47F",
"#. c #BCD85F",
"$. c #B5C97C",
"%. c #C2D97E",
"&. c #126A82",
"*. c #146D84",
"=. c #1699BB",
"-. c #1C9DBD",
";. c #17A2C6",
":. c #19A2C6",
">. c #1FA2C4",
",. c #22A9C9",
"<. c #2CAACB",
"1. c #5FBED6",
"2. c #6EC3DA",
"3. c #73C5DB",
"4. c #78C7DC",
"5. c #8A8E81",
"6. c #ADB88F",
"7. c #B0BD8F",
"8. c #A2A3A0",
"9. c #B3C483",
"0. c #B2C188",
"q. c #BEC9A3",
"w. c #C7D3A9",
"e. c #CBD4B7",
"r. c #CBD1BF",
"t. c #86CDE0",
"y. c #95D3E3",
"u. c #C1E6EF",
"i. c #CCE9F0",
"p. c #D1EBF2",
"a. c #D4EEF4",
"s. c #E2F3F7",
"d. c #E6F5F8",
"f. c #F8FCFD",
"g. c #FCFEFE",
/* pixels */
"                                                                                                                                ",
"                                                                                                                                ",
"                                                                                                                                ",
"                                                            H T                                                                 ",
"        y x                                                 R +.o                                                               ",
"      X ' r.e                                               # i                                               ; e               ",
"        y x                                                                                                   ) 6.t             ",
"                                                                                                              T ..8             ",
"                                                                                                              + :               ",
"                                                                                                                                ",
"                                  % g -                                                           + U Y +                       ",
"                                  ) 9.G     X                                                     0 8.$.q                       ",
"                                  0 g % X                           X X                           + L P +                       ",
"                                                                                                                                ",
"                                                                  o X                                                           ",
"                                                                  #                                                             ",
"                                                                                                                                ",
"                                                                            B ` e                                               ",
"                      X                                                     / %.K                                               ",
"                      o                                                     ; z >                                               ",
"                                                                                                                                ",
"                                a %                         X                                                                   ",
"                              e e.A                         o                                                                   ",
"                                S 2                                                 *                                           ",
"                                                                                  C ] +                                         ",
"                                                                                , 5.#.z                                         ",
"            o                                                                     V Q +                                         ",
"            o                                                                                                           + +     ",
"                                                                                                          ; W ! ;               ",
"                                                          m =.,.:.M                                       0 @.O.0   +           ",
"                                                  d d   v <.a.g.u.>.b                                       q w                 ",
"                                                o  . .X I 4.f.g.d.2.&.s g                                                       ",
"                                                  3 3   I 3.a.s.p.1.*.{ o.o                                                     ",
"                                                        v :.y.i.t.:.n 1 4                                                       ",
"            o                                             m -.;.>.N                                                             ",
"          o } ^                                                                                                                 ",
"            Z k                                                                                                                 ",
"                                                                                      X                                         ",
"                                            o o o                                   &                                           ",
"                                              * <                                                                               ",
"                                            o o X                                                                               ",
"                                                                                                    # i                         ",
"                                                                  X                                 A 7.>                       ",
"                                                                  o                                 5 _ >                       ",
"                                                                                                                                ",
"                  & o                                                                                                           ",
"                      o                                                                                                         ",
"                                                                            - i                                                 ",
"                      o                 % G =                               ) q.j       D D           X                         ",
"                                        F w.l                               7 E =     o X.[ o                                   ",
"                                        1 c %                                           6 +                                     ",
"                                                                                                                                ",
"                                                                                                                                ",
"                                                                                                                                ",
"                                                                                                                                ",
"                                      X                                                                                         ",
"                                    K | $                                                                                       ",
"                                    J | $                                                                                       ",
"                                      X                                                                                         ",
"                                                                                                                                ",
"                                                                    o                   < ~ 6                                   ",
"                                                                    o                   c 0.d                                   ",
"                                                                                        o p #                                   ",
"                                                                                                                                "
};
